<?xml version="1.0" encoding="utf-8"?>
<svg class="animated" id="freepik_stories-acne-treatment" viewBox="0 0 750 500" version="1.1" xmlns="http://www.w3.org/2000/svg">
  <style>svg#freepik_stories-acne-treatment:not(.animated) .animable {opacity: 0;}svg#freepik_stories-acne-treatment.animated #freepik--phase-3--inject-9 {animation: 2.1s 1 forwards cubic-bezier(.36,-0.01,.5,1.38) zoomIn;animation-delay: 0s;}svg#freepik_stories-acne-treatment.animated #freepik--phase-2--inject-9 {animation: 2.1s 1 forwards cubic-bezier(.36,-0.01,.5,1.38) zoomIn;animation-delay: 0s;}svg#freepik_stories-acne-treatment.animated #freepik--phase-1--inject-9 {animation: 2.1s 1 forwards cubic-bezier(.36,-0.01,.5,1.38) zoomIn;animation-delay: 0s;}            @keyframes zoomIn {                0% {                    opacity: 0;                    transform: scale(0.5);                }                100% {                    opacity: 1;                    transform: scale(1);                }            }        </style>
  <g id="freepik--background-complete--inject-9" class="animable" style="transform-origin: 265.781px 243.308px;">
    <path d="M130.26,335.34V305.58l-25.51-.14v0h-3.57v0l-25.51.14v29.76c-9-.46-18.77,7.86-18.64,17l1.39,97.5a13.82,13.82,0,0,0,14.23,13.69h60.63a13.81,13.81,0,0,0,14.22-13.69l1.4-97.5C149,343.2,139.26,334.88,130.26,335.34Z" style="transform-origin: 102.965px 384.488px; fill: rgb(86, 85, 85);" id="elbrxbmkvbfhr" class="animable"/>
    <polygon points="92.94 309.64 92.8 293.47 82.67 293.62 82.85 286.92 139.37 286.91 146.47 298.28 138.5 298.31 135.55 293.6 114.72 293.77 115.13 309.52 92.94 309.64" style="transform-origin: 114.57px 298.275px; fill: rgb(105, 105, 105);" id="el6ywovz3m24w" class="animable"/>
    <polygon points="72.95 384.47 72.82 368.54 131.74 368.58 131.43 384.04 72.95 384.47" style="fill: rgb(250, 250, 250); transform-origin: 102.28px 376.505px;" id="elg9pjyn9967t" class="animable"/>
    <polygon points="73.64 393.17 73.16 442.81 132.77 443.23 132.67 393.37 73.64 393.17" style="fill: rgb(250, 250, 250); transform-origin: 102.965px 418.2px;" id="elql26k8f2y3" class="animable"/>
    <path d="M122.38,293.88c0,.15-8.88.26-19.84.26S82.7,294,82.7,293.88s8.88-.26,19.84-.26S122.38,293.74,122.38,293.88Z" style="fill: rgb(235, 235, 235); transform-origin: 102.54px 293.88px;" id="elnqnk5hvhfp" class="animable"/>
    <path d="M122.12,305.48c0,.14-8.88.26-19.84.26s-19.84-.12-19.84-.26,8.88-.26,19.84-.26S122.12,305.33,122.12,305.48Z" style="fill: rgb(235, 235, 235); transform-origin: 102.28px 305.48px;" id="elmrjkw38wdk" class="animable"/>
    <path d="M130.26,335.07c0,.14-12.22.26-27.29.26s-27.3-.12-27.3-.26,12.22-.26,27.3-.26S130.26,334.92,130.26,335.07Z" style="fill: rgb(235, 235, 235); transform-origin: 102.965px 335.07px;" id="elq11hfqve4y" class="animable"/>
    <path d="M193.85,270.85c-12,.17-13.84,13.59-10.77,22.55-6.49-3.4-15.58,0-18.29,6.78s1.6,15.51,8.66,17.49a15.57,15.57,0,0,0,21.65,21.38,18.14,18.14,0,0,0,32.3,11.42,23,23,0,0,0,36.28-26.6c10.81-3.54,18-15.67,16-26.85s-13-20-24.39-19.55c3.83-6.44,2.14-15.37-3.23-20.6s-13.76-6.77-20.95-4.63-13.12,7.59-16.71,14.18a10.62,10.62,0,0,0-20.56,4.43" style="fill: rgb(245, 245, 245); transform-origin: 221.993px 304.289px;" id="elfyaj549gfkl" class="animable"/>
    <path d="M153.5,247.38c-4.11-2.73-9.21-1.46-11.33,1.55a8.88,8.88,0,0,0,.26,10.32c-3.32,1.47-4.81,5.87-3.39,9.21a8.72,8.72,0,0,0,8.9,4.87,10.92,10.92,0,0,0,8.29-6.32,9,9,0,1,0,12.06-13.24c3.15-4,1.43-10.8-3.24-12.81s-10.8,1.39-11.55,6.42" style="fill: rgb(245, 245, 245); transform-origin: 155.215px 256.883px;" id="eld2dwoy8tk6s" class="animable"/>
    <path d="M367.15,216.78c-4.12-2.74-9.21-1.46-11.34,1.55a8.88,8.88,0,0,0,.26,10.31c-3.31,1.47-4.8,5.88-3.38,9.21a8.68,8.68,0,0,0,8.9,4.87,10.88,10.88,0,0,0,8.28-6.31,9,9,0,1,0,12.06-13.25c3.15-4,1.43-10.79-3.24-12.81s-10.8,1.4-11.54,6.43" style="fill: rgb(245, 245, 245); transform-origin: 368.847px 226.273px;" id="elm4vwyx1fz6" class="animable"/>
    <path d="M327.06,346.49a26.41,26.41,0,0,0,23.23,45.33c-5.89,8-3.62,20.5,4.18,26.68s19.7,5.93,27.85.22,12.43-16.09,11.76-26c11.35,6.15,27.33,1.1,33.09-10.45s.17-27.35-11.57-32.72c6.3-7.85,5.37-20.51-2-27.36s-20.06-6.84-27.43,0c-2-8.66-11.11-15-19.94-14s-16.2,9.33-16.18,18.22C345.61,318,332.4,316.11,325.8,323s-4.22,20,4.37,24.1" style="fill: rgb(245, 245, 245); transform-origin: 373.971px 365.577px;" id="el4owqh3w7txy" class="animable"/>
    <path d="M108,49c.53-.54,2.08-5.41,2.08-5.41L165.69,65l-2.4,6.28-58,124.24L68.17,181.27Z" style="transform-origin: 116.93px 119.555px; fill: rgb(96, 96, 96);" id="el2ljkgz1a85b" class="animable"/>
    <path d="M93.62,213.68,64.76,202.61a1.83,1.83,0,0,1-1.05-2.36l6.92-18,32.27,12.38-6.92,18A1.83,1.83,0,0,1,93.62,213.68Z" style="fill: rgb(235, 235, 235); transform-origin: 83.2448px 198.025px;" id="eleluhwu3535" class="animable"/>
    <path d="M93.62,213.68a3.06,3.06,0,0,0,.39.08,1.86,1.86,0,0,0,1.11-.21,1.69,1.69,0,0,0,.61-.56,4.25,4.25,0,0,0,.41-.93l.9-2.4c1.37-3.62,3.34-8.81,5.74-15.12l.07.17L72.28,183l-1.71-.65.21-.1-3.85,10c-.62,1.62-1.24,3.21-1.83,4.77-.3.77-.6,1.54-.89,2.3-.14.38-.31.77-.42,1.12a1.73,1.73,0,0,0,.09,1.08,1.68,1.68,0,0,0,.72.79c.32.16.72.29,1.07.43l2.13.83,4.09,1.57L79.21,208l10.56,4.11,2.86,1.13.74.3.25.11-.26-.08-.75-.27-2.88-1.08-10.61-4-7.33-2.79-4.09-1.56-2.14-.81c-.36-.16-.71-.26-1.1-.45a2,2,0,0,1-1-2.2c.12-.42.28-.76.42-1.15.29-.77.59-1.54.89-2.31q.89-2.34,1.82-4.77l3.85-10,.06-.15.15.06,1.71.66L103,194.47l.12.05,0,.12-5.84,15.07c-.35.9-.66,1.7-.94,2.39a4.35,4.35,0,0,1-.43,1,1.94,1.94,0,0,1-.66.57,1.78,1.78,0,0,1-1.15.18A1.31,1.31,0,0,1,93.62,213.68Z" style="fill: rgb(224, 224, 224); transform-origin: 83.2654px 197.954px;" id="elv4gvjwr79cl" class="animable"/>
    <path d="M108,48.88c0-.08,12.53,4.63,27.91,10.53s27.83,10.76,27.8,10.84-12.53-4.63-27.92-10.53S107.94,49,108,48.88Z" style="fill: rgb(224, 224, 224); transform-origin: 135.855px 59.565px;" id="el71z3jrq89w4" class="animable"/>
    <path d="M 68.17 181.371 L 105.3 195.51 L 163 72.989 C 158.193 83.302 150.532 92.045 140.91 98.198 C 131.19 104.622 120.29 109.12 110.52 115.455 C 88.1 129.98 75.59 154.087 68.17 181.371" style="fill: rgb(75, 75, 75); transform-origin: 115.585px 134.25px;" id="elaqfbz6gk51c" class="animable"/>
    <path d="M67.21,203.54c-.08,0,1.54-4.46,3.63-9.9s3.84-9.81,3.92-9.78-1.53,4.46-3.62,9.9S67.3,203.57,67.21,203.54Z" style="fill: rgb(224, 224, 224); transform-origin: 70.985px 193.7px;" id="els0nlxbjhilf" class="animable"/>
    <path d="M71.9,205.34c-.08,0,1.54-4.47,3.62-9.9s3.85-9.82,3.93-9.78-1.54,4.46-3.62,9.9S72,205.37,71.9,205.34Z" style="transform-origin: 75.675px 195.5px; fill: rgb(118, 118, 118);" id="elk5mk9t7jbg" class="animable"/>
    <path d="M76.59,207.14c-.09,0,1.53-4.47,3.62-9.9s3.84-9.82,3.93-9.79-1.54,4.47-3.63,9.9S76.67,207.17,76.59,207.14Z" style="fill: rgb(224, 224, 224); transform-origin: 80.365px 197.295px;" id="elazclwdzz95q" class="animable"/>
    <path d="M81.27,208.93c-.08,0,1.54-4.46,3.63-9.89s3.84-9.82,3.92-9.79-1.53,4.47-3.62,9.9S81.36,209,81.27,208.93Z" style="fill: rgb(224, 224, 224); transform-origin: 85.045px 199.09px;" id="el9yheb73n4uk" class="animable"/>
    <path d="M86,210.73c-.09,0,1.54-4.46,3.62-9.9s3.84-9.81,3.93-9.78S92,195.51,89.89,201,86,210.76,86,210.73Z" style="fill: rgb(224, 224, 224); transform-origin: 89.775px 200.89px;" id="el3r3s3n8s06n" class="animable"/>
    <path d="M90.64,212.53c-.08,0,1.54-4.47,3.63-9.9s3.84-9.81,3.93-9.78-1.54,4.46-3.63,9.9S90.73,212.56,90.64,212.53Z" style="fill: rgb(224, 224, 224); transform-origin: 94.4204px 202.69px;" id="elo7ahs23idn" class="animable"/>
    <g id="elk1aw6xzsl8b">
      <rect x="88.36" y="142.75" width="30.18" height="7.31" style="fill: rgb(224, 224, 224); transform-origin: 103.45px 146.405px; transform: rotate(20.99deg);" class="animable"/>
    </g>
    <g id="el44r7af9axes">
      <rect x="85.14" y="152.65" width="30.18" height="7.31" style="fill: rgb(224, 224, 224); transform-origin: 100.23px 156.305px; transform: rotate(20.99deg);" class="animable"/>
    </g>
    <g id="elzqycnv0e97">
      <rect x="114.99" y="74.83" width="30.18" height="7.31" style="fill: rgb(255, 255, 255); transform-origin: 130.08px 78.485px; transform: rotate(20.99deg);" class="animable"/>
    </g>
    <g id="elptfnuitbkh">
      <path d="M 354.54 46.081 L 462.8 46.081 C 468.24 46.081 472.65 50.491 472.65 55.931 L 472.65 81.871 C 472.65 81.871 472.65 81.871 472.65 81.871 L 344.65 81.871 C 344.65 81.871 344.65 81.871 344.65 81.871 L 344.65 55.931 C 344.65 50.491 349.06 46.081 354.5 46.081 L 354.54 46.081 Z" style="transform-origin: 408.65px 63.976px; fill: rgb(130, 129, 129);" class="animable" transform="matrix(0.919547, 0.392979, -0.392979, 0.919547, -0.000003, -0.000002)"/>
    </g>
    <g id="ely5h7b4p0b67">
      <path d="M 331.36 78.981 L 458.51 78.981 C 458.51 78.981 458.51 78.981 458.51 78.981 L 458.51 96.061 C 458.51 104.434 451.723 111.221 443.35 111.221 L 346.52 111.221 C 338.147 111.221 331.36 104.434 331.36 96.061 L 331.36 78.981 C 331.36 78.981 331.36 78.981 331.36 78.981 Z" style="transform-origin: 394.935px 95.101px; fill: rgb(96, 96, 96);" class="animable" transform="matrix(0.919547, 0.392979, -0.392979, 0.919547, -0.000003, 0.000003)"/>
    </g>
    <g id="elredvqezdtx">
      <rect x="343.59" y="109.06" width="89.87" height="3.55" style="fill: rgb(245, 245, 245); transform-origin: 388.525px 110.835px; transform: rotate(23.14deg);" class="animable"/>
    </g>
    <g id="elejzw0ceff7k">
      <rect x="362.49" y="86.92" width="67.7" height="13.24" style="fill: rgb(255, 255, 255); transform-origin: 396.34px 93.54px;" class="animable" transform="matrix(0.919547, 0.392979, -0.392979, 0.919547, -0.000146, -0.708884)"/>
    </g>
    <path d="M429,128c-.06.13-18.41-7.58-41-17.22s-40.83-17.58-40.77-17.71,18.4,7.58,41,17.23S429,127.86,429,128Z" style="fill: rgb(224, 224, 224); transform-origin: 388.115px 110.535px;" id="elxktgf85tz1c" class="animable"/>
  </g>
  <g id="freepik--Floor--inject-9" class="animable" style="transform-origin: 325.85px 463.245px;">
    <path d="M594.7,463.23c0,.14-120.37.26-268.82.26S57,463.37,57,463.23,177.37,463,325.88,463,594.7,463.09,594.7,463.23Z" style="fill: rgb(38, 50, 56); transform-origin: 325.85px 463.245px;" id="el3aojejhmzol" class="animable"/>
  </g>
  <g id="freepik--phase-3--inject-9" class="animable animator-active" style="transform-origin: 624.46px 410.072px;">
    <circle cx="638.76" cy="410.09" r="61.43" style="fill: rgb(245, 245, 245); transform-origin: 638.76px 410.09px;" id="ela5lwk4fnjuw" class="animable"/>
    <path d="M648.19,395a6.38,6.38,0,0,0-6.12,4.52c-1.78,6,2.94,9.88,4.4,12.53a17.76,17.76,0,0,1,2.39,11.61c-.61,3.8-3.51,9.41-8,11.14-3.6,1.38-8.26-.14-10.88-3-1.83-2-2.73-6.48-2.41-9.17a16.63,16.63,0,0,1,2.66-7.69c1.46-2.07,3.23-3.7,4.48-5.9,1-1.8,1.36-6.81.52-10.67l-.05,0a23.3,23.3,0,0,1-.65-2.31.36.36,0,0,1,0-.09h0a21.55,21.55,0,0,1,.48-11.73c1.54-4.56,4.57-9,9-10.82,5.26-2.19,12.28-1.78,18.69-1.86,9-.11,21.08.18,24.11.26A61.22,61.22,0,1,0,698.3,395Z" style="fill: none; transform-origin: 638.942px 409.985px;" id="elidbgn31su5h" class="animable"/>
    <path d="M662.68,371.56c-6.41.08-13.43-.33-18.69,1.86-4.43,1.85-7.46,6.26-9,10.82a21.55,21.55,0,0,0-.48,11.73h0a.36.36,0,0,0,0,.09,23.3,23.3,0,0,0,.65,2.31l.05,0c.84,3.86.51,8.87-.52,10.67-1.25,2.2-3,3.83-4.48,5.9a16.63,16.63,0,0,0-2.66,7.69c-.32,2.69.58,7.18,2.41,9.17,2.62,2.83,7.28,4.35,10.88,3,4.49-1.73,7.39-7.34,8-11.14A17.76,17.76,0,0,0,646.47,412c-1.46-2.65-6.18-6.57-4.4-12.53a6.38,6.38,0,0,1,6.12-4.52H698.3a60.93,60.93,0,0,0-11.51-23.13C683.76,371.74,671.63,371.45,662.68,371.56Z" style="fill: rgb(224, 224, 224); transform-origin: 662.893px 403.417px;" id="el2wq11t3qcyd" class="animable"/>
    <path d="M700.19,410.09a61.81,61.81,0,0,0-1.78-14.69c-8.39,0-27.35,0-48.46,0a6.72,6.72,0,0,0-6.54,8.41l0,.09c1.05,3.81,5.38,7.86,6.53,11.64,1.35,4.38,1.67,8.06.12,12.37s-5,8-9.27,9.11c-6,1.58-12.79-2.56-14.4-8.75a19.2,19.2,0,0,1,1.07-12c1.55-3.74,5.73-7.28,6.12-11.33v-.1a8.76,8.76,0,0,0-8.79-9.47l-45.7-.05a61.43,61.43,0,1,0,121.07,14.72Z" style="fill: rgb(255, 191, 157); transform-origin: 638.745px 433.396px;" id="elh77f3g12qdr" class="animable"/>
    <path d="M672.19,432.6c-5.24.38-8.69,6-13.8,7.2-4.89,1.15-9.45-1.95-14.1-4.33a11.17,11.17,0,0,1-13.62-.8c-3.72,2.09-7,5.46-11.23,5.54-4.64.08-8.42-3.89-13-4.68-3.44-.6-6.9.66-10.13,2s-6.58,2.75-10.06,2.52a8.62,8.62,0,0,1-1.24-.18,61.42,61.42,0,0,0,106.76,1.25,13.15,13.15,0,0,1-4.07-.72C682.16,438.41,678.07,432.17,672.19,432.6Z" style="fill: rgb(255, 154, 108); transform-origin: 638.39px 452.061px;" id="elyofgs890igm" class="animable"/>
    <path d="M650,415.57c1.35,4.38,1.67,8.06.12,12.37a15.08,15.08,0,0,1-5.79,7.53c4.65,2.38,9.21,5.48,14.1,4.33,5.11-1.21,8.56-6.82,13.8-7.2,5.88-.43,10,5.81,15.52,7.78a13.15,13.15,0,0,0,4.07.72,61.19,61.19,0,0,0,8.41-31c0-.46,0-.92,0-1.37l-53.83.59C647.8,411.42,649.34,413.54,650,415.57Z" style="fill: rgb(64, 123, 255); transform-origin: 672.28px 424.915px;" id="el7j9k27ai9sn" class="animable"/>
    <path d="M596.32,437.51c3.23-1.32,6.69-2.58,10.13-2,4.57.79,8.35,4.76,13,4.68,4.23-.08,7.51-3.45,11.23-5.54a12.13,12.13,0,0,1-4.26-6.37,19.2,19.2,0,0,1,1.07-12c.95-2.3,2.9-4.53,4.35-6.85l-54.5.61h0A61.07,61.07,0,0,0,585,439.85a8.62,8.62,0,0,0,1.24.18C589.74,440.26,593.09,438.83,596.32,437.51Z" style="fill: rgb(64, 123, 255); transform-origin: 604.59px 424.811px;" id="elzo8uv8ptt2" class="animable"/>
    <g id="elz1tj9z295p">
      <g style="opacity: 0.2; transform-origin: 614.374px 419.159px;" class="animable">
        <path d="M619,414.58a3.69,3.69,0,0,0-3.84-2.34l-1.58.16a5.26,5.26,0,0,0-3.94,3.47,7.28,7.28,0,0,0,.4,5.36,11.77,11.77,0,0,0,3.49,4.19,2.57,2.57,0,0,0,1.4.68c1,0,1.66-.82,2.14-1.63a18.24,18.24,0,0,0,2.05-5.11A7.72,7.72,0,0,0,619,414.58Z" style="fill: rgb(255, 255, 255); transform-origin: 614.374px 419.159px;" id="elj63411h1br" class="animable"/>
      </g>
    </g>
    <g id="elrcirn4xlmgs">
      <path d="M603.8,422.73A5.39,5.39,0,0,0,600,423c-1.47.66-3.28,1.72-3.57,3.07-.49,2.33.49,5.53,1.6,6.39s6.5-.62,8.1-1.48,2.21-5.15,1.35-6.38C607,423.84,605.21,423.16,603.8,422.73Z" style="fill: rgb(255, 255, 255); opacity: 0.2; transform-origin: 602.085px 427.612px;" class="animable"/>
    </g>
    <g id="elpyldwucelxe">
      <g style="opacity: 0.2; transform-origin: 594.557px 415.492px;" class="animable">
        <path d="M597.78,415a3.13,3.13,0,0,0-4.71-2.37h0c-1.41.41-2.08,2.74-1.59,4.12a3.23,3.23,0,0,0,3.52,2A3.52,3.52,0,0,0,597.78,415Z" style="fill: rgb(255, 255, 255); transform-origin: 594.557px 415.492px;" id="el5y09om6ubrh" class="animable"/>
      </g>
    </g>
    <g id="eln1c0ar5dlna">
      <g style="opacity: 0.2; transform-origin: 620.348px 432.679px;" class="animable">
        <path d="M623.56,432.18a3.27,3.27,0,0,0-.69-1.65,3.17,3.17,0,0,0-4-.72h0c-1.4.4-2.08,2.73-1.59,4.11a3.21,3.21,0,0,0,3.52,2A3.51,3.51,0,0,0,623.56,432.18Z" style="fill: rgb(255, 255, 255); transform-origin: 620.348px 432.679px;" id="elpg8lqnqc2rh" class="animable"/>
      </g>
    </g>
    <g id="el6fteardwtu3">
      <g style="opacity: 0.2; transform-origin: 586.51px 426.928px;" class="animable">
        <path d="M590.75,429.35c-.09-1.5-.25-3-.49-4.49a5.86,5.86,0,0,0-1.44-3.47,3.9,3.9,0,0,0-2.79-.94,7.71,7.71,0,0,0-2.89.77l-.89,1.37a15.1,15.1,0,0,0,2,8.66,4.87,4.87,0,0,0,2.95,2.1,3.08,3.08,0,0,0,3.21-1.34A4.8,4.8,0,0,0,590.75,429.35Z" style="fill: rgb(255, 255, 255); transform-origin: 586.51px 426.928px;" id="eld4jkomhsbk6" class="animable"/>
      </g>
    </g>
    <g id="elxdlgxid9gy">
      <g style="opacity: 0.2; transform-origin: 663.487px 417.682px;" class="animable">
        <path d="M670.32,415.69a6.6,6.6,0,0,0-5.09-3.2,33.77,33.77,0,0,0-7.18.3,1.8,1.8,0,0,0-1.19.86h0a1.72,1.72,0,0,0-.25.73c-.23,1.95-.82,3.9.23,5.55a6.72,6.72,0,0,0,4.22,2.7,19,19,0,0,0,5.12.24,5.12,5.12,0,0,0,3.27-.91,4.67,4.67,0,0,0,1.2-3A6.16,6.16,0,0,0,670.32,415.69Z" style="fill: rgb(255, 255, 255); transform-origin: 663.487px 417.682px;" id="elqo70jyzlze" class="animable"/>
      </g>
    </g>
    <g id="elo6isv2qywpr">
      <g style="opacity: 0.2; transform-origin: 659.283px 429.707px;" class="animable">
        <path d="M659.38,426.74l-1.29,0a3.22,3.22,0,0,0-1.75,3.69,3.17,3.17,0,0,0,3.42,2.22,3.11,3.11,0,0,0,2.56-3.15A3.07,3.07,0,0,0,659.38,426.74Z" style="fill: rgb(255, 255, 255); transform-origin: 659.283px 429.707px;" id="elubftqmlztf" class="animable"/>
      </g>
    </g>
    <g id="elhtigpwwl7m">
      <g style="opacity: 0.2; transform-origin: 692.514px 415.316px;" class="animable">
        <path d="M692.61,412.35l-1.29,0a3.23,3.23,0,0,0-1.75,3.69,3.18,3.18,0,0,0,3.42,2.22,3.11,3.11,0,0,0,2.56-3.15A3.07,3.07,0,0,0,692.61,412.35Z" style="fill: rgb(255, 255, 255); transform-origin: 692.514px 415.316px;" id="elymel6hjeuco" class="animable"/>
      </g>
    </g>
    <g id="elh76sh3zom8v">
      <g style="opacity: 0.2; transform-origin: 679.289px 423.041px;" class="animable">
        <path d="M685,418.92a3.55,3.55,0,0,0-3.33-2.56,8.44,8.44,0,0,0-4.29,1.17l-1,.71a20.34,20.34,0,0,0-2.32,4.08,6.79,6.79,0,0,0-.23,4.59,4.1,4.1,0,0,0,3.43,2.81,4.63,4.63,0,0,0,3-1c2.24-1.66,3.37-4.38,4.32-7A5.22,5.22,0,0,0,685,418.92Z" style="fill: rgb(255, 255, 255); transform-origin: 679.289px 423.041px;" id="el30uuq5arilk" class="animable"/>
      </g>
    </g>
    <g id="el9e65ybedm64">
      <g style="opacity: 0.2; transform-origin: 691px 427.717px;" class="animable">
        <path d="M692.77,424.22h-1.22a4.93,4.93,0,0,0-2.53,1.71,3.73,3.73,0,0,0-.7,2.92,3,3,0,0,0,1.93,2.24,2.55,2.55,0,0,0,2.78-.84,3.93,3.93,0,0,0,.61-1.93A5.36,5.36,0,0,0,692.77,424.22Z" style="fill: rgb(255, 255, 255); transform-origin: 691px 427.717px;" id="elucim9huxe67" class="animable"/>
      </g>
    </g>
    <path d="M700.19,410.09s0-.34-.05-1,0-1.64-.14-2.92a61.42,61.42,0,0,0-24.15-44.81,61.17,61.17,0,0,0-25.79-11.43,60.63,60.63,0,0,0-15.79-.86,61.44,61.44,0,0,0-8.2,1.14,66.36,66.36,0,0,0-8.18,2.34,61.23,61.23,0,0,0,0,115.07,66.36,66.36,0,0,0,8.18,2.34,63.3,63.3,0,0,0,8.21,1.15,61,61,0,0,0,15.78-.87,61,61,0,0,0,25.79-11.43A61.44,61.44,0,0,0,700,414c.12-1.28.09-2.26.14-2.92s.05-1,.05-1,0,1.35-.09,3.92a59.39,59.39,0,0,1-1.67,11.11,61.4,61.4,0,0,1-22.36,34,61.11,61.11,0,0,1-25.93,11.56,61,61,0,0,1-15.9.9,62.08,62.08,0,0,1-8.26-1.14,65.23,65.23,0,0,1-8.25-2.35,61.68,61.68,0,0,1,0-116,63.56,63.56,0,0,1,8.25-2.34,61.52,61.52,0,0,1,50.09,11.3,62.32,62.32,0,0,1,15.61,17.55,61.49,61.49,0,0,1,6.75,16.44,59.39,59.39,0,0,1,1.67,11.11C700.23,408.73,700.19,410.09,700.19,410.09Z" style="fill: rgb(38, 50, 56); transform-origin: 638.616px 410.072px;" id="eltjlrr8tzxmi" class="animable"/>
    <path d="M626,383.63a3.22,3.22,0,0,1,.87.25,6.21,6.21,0,0,1,2.51,1.81,4.73,4.73,0,0,1,1,3.05,5.21,5.21,0,0,1-1.79,3.3c-1.2,1.23-2.8,2.38-4.6,1.53a3.83,3.83,0,0,1-1.66-1.65,9.47,9.47,0,0,1-1.32-3.35,5.31,5.31,0,0,1,.62-3.37,3.38,3.38,0,0,1,2.92-1.72Z" style="fill: rgb(224, 224, 224); transform-origin: 625.668px 388.671px;" id="eld5ljc9zwfxj" class="animable"/>
    <g id="elpzjjr3xmew">
      <g style="opacity: 0.4; transform-origin: 627.208px 388.307px;" class="animable">
        <path d="M628.15,387.09a1.84,1.84,0,0,1,.29.51,2,2,0,0,1-.73,1.95,1.22,1.22,0,0,1-1.1.29c-.49-.16-.66-.75-.67-1.27a2.09,2.09,0,0,1,.61-1.41,1.38,1.38,0,0,1,.76-.41A.94.94,0,0,1,628.15,387.09Z" style="fill: rgb(255, 255, 255); transform-origin: 627.208px 388.307px;" id="elu3f9wu4fnh" class="animable"/>
      </g>
    </g>
    <path d="M626.32,378.37a2.77,2.77,0,0,1,.22-.63A4.55,4.55,0,0,1,628,376a3.5,3.5,0,0,1,2.27-.56,3.85,3.85,0,0,1,2.33,1.46c.84.94,1.6,2.16.89,3.44a2.76,2.76,0,0,1-1.28,1.13,6.85,6.85,0,0,1-2.51.81,3.82,3.82,0,0,1-2.43-.61,2.47,2.47,0,0,1-1.12-2.22Z" style="fill: rgb(224, 224, 224); transform-origin: 629.958px 378.859px;" id="eloclo3uo06jr" class="animable"/>
    <g id="elihvw4znk5ws">
      <g style="opacity: 0.4; transform-origin: 629.82px 377.746px;" class="animable">
        <path d="M629,377a1.2,1.2,0,0,1,1.77.44.88.88,0,0,1,.16.82.91.91,0,0,1-1,.43,1.58,1.58,0,0,1-1-.52,1,1,0,0,1-.26-.57A.71.71,0,0,1,629,377Z" style="fill: rgb(255, 255, 255); transform-origin: 629.82px 377.746px;" id="el4b7hic6dsd9" class="animable"/>
      </g>
    </g>
    <g id="el193i1bvzhf9">
      <path d="M692.37,385.81a4.87,4.87,0,1,1-4.86-4.87A4.87,4.87,0,0,1,692.37,385.81Z" style="fill: rgb(255, 255, 255); opacity: 0.4; transform-origin: 687.5px 385.81px;" class="animable"/>
    </g>
    <g id="el6dwgp7f8nb5">
      <path d="M655.77,382.48a4.87,4.87,0,1,1-4.86-4.87A4.86,4.86,0,0,1,655.77,382.48Z" style="fill: rgb(255, 255, 255); opacity: 0.4; transform-origin: 650.9px 382.48px;" class="animable"/>
    </g>
    <g id="eldf8d90udbkj">
      <path d="M645.71,387.51a2.43,2.43,0,1,1-3.32-.89A2.42,2.42,0,0,1,645.71,387.51Z" style="fill: rgb(255, 255, 255); opacity: 0.4; transform-origin: 643.605px 388.723px;" class="animable"/>
    </g>
    <g id="ellvxsxo9z26e">
      <path d="M645.38,387.77c.34.68.25,1.42-.2,1.64s-1.09-.15-1.43-.84-.25-1.42.2-1.64S645,387.08,645.38,387.77Z" style="fill: rgb(255, 255, 255); opacity: 0.4; transform-origin: 644.565px 388.17px;" class="animable"/>
    </g>
    <g id="elc5wx85f769n">
      <path d="M642.21,413.35a2.43,2.43,0,1,1-3.32-.9A2.43,2.43,0,0,1,642.21,413.35Z" style="fill: rgb(255, 255, 255); opacity: 0.4; transform-origin: 640.101px 414.557px;" class="animable"/>
    </g>
    <g id="elaxsfpq4pzql">
      <path d="M641.88,413.6c.34.69.25,1.43-.2,1.65s-1.09-.15-1.43-.84-.25-1.42.2-1.65S641.54,412.92,641.88,413.6Z" style="fill: rgb(255, 255, 255); opacity: 0.4; transform-origin: 641.065px 414.004px;" class="animable"/>
    </g>
    <g id="el1dzhohn5vas">
      <path d="M679.5,387.45a2.44,2.44,0,1,1-3.33-.89A2.45,2.45,0,0,1,679.5,387.45Z" style="fill: rgb(255, 255, 255); opacity: 0.4; transform-origin: 677.389px 388.675px;" class="animable"/>
    </g>
    <g id="elwtkbntws6te">
      <path d="M679.16,387.71c.34.69.25,1.42-.2,1.65s-1.09-.16-1.43-.84-.25-1.43.2-1.65S678.82,387,679.16,387.71Z" style="fill: rgb(255, 255, 255); opacity: 0.4; transform-origin: 678.345px 388.115px;" class="animable"/>
    </g>
    <g id="el9rouekt629a">
      <path d="M675.63,377.82a3.77,3.77,0,1,1-5.15-1.38A3.77,3.77,0,0,1,675.63,377.82Z" style="fill: rgb(255, 255, 255); opacity: 0.4; transform-origin: 672.365px 379.705px;" class="animable"/>
    </g>
    <g id="elvenrlw74s2">
      <path d="M675.11,378.22c.53,1.07.39,2.21-.31,2.55s-1.68-.24-2.21-1.3-.39-2.2.31-2.55S674.59,377.16,675.11,378.22Z" style="fill: rgb(255, 255, 255); opacity: 0.4; transform-origin: 673.85px 378.843px;" class="animable"/>
    </g>
    <g id="elvpfurssoq7">
      <path d="M654.75,382.31c-.08,1.28-.83,2.28-1.67,2.22s-1.45-1.13-1.37-2.41.83-2.28,1.67-2.22S654.84,381,654.75,382.31Z" style="fill: rgb(255, 255, 255); opacity: 0.4; transform-origin: 653.231px 382.215px;" class="animable"/>
    </g>
    <g id="elyvk9g2wh9lb">
      <path d="M639.68,423.68a4.87,4.87,0,1,1-4.87-4.86A4.87,4.87,0,0,1,639.68,423.68Z" style="fill: rgb(255, 255, 255); opacity: 0.4; transform-origin: 634.81px 423.69px;" class="animable"/>
    </g>
    <g id="elgllieueuk37">
      <path d="M638.66,423.52c-.08,1.28-.83,2.27-1.67,2.22s-1.46-1.14-1.37-2.42.83-2.27,1.67-2.22S638.74,422.24,638.66,423.52Z" style="fill: rgb(255, 255, 255); opacity: 0.4; transform-origin: 637.139px 423.42px;" class="animable"/>
    </g>
    <g id="el1c468ku5qgr">
      <path d="M664.07,388.21c-2.05,1.74-4.89,1.76-6.34.05s-1-4.51,1.07-6.25,4.89-1.76,6.35-.05S666.12,386.47,664.07,388.21Z" style="fill: rgb(255, 255, 255); opacity: 0.4; transform-origin: 661.438px 385.11px;" class="animable"/>
    </g>
    <g id="eldqg3yz2fhnf">
      <path d="M665.38,384.38c0,.64-.41,1.14-.83,1.11s-.73-.56-.69-1.2.42-1.14.84-1.11S665.43,383.74,665.38,384.38Z" style="fill: rgb(255, 255, 255); opacity: 0.4; transform-origin: 664.621px 384.335px;" class="animable"/>
    </g>
    <g id="el9nl0ia2pmo7">
      <path d="M690.14,387c0,.64-.42,1.14-.84,1.11s-.73-.57-.68-1.21.41-1.13.83-1.11S690.18,386.38,690.14,387Z" style="fill: rgb(255, 255, 255); opacity: 0.4; transform-origin: 689.379px 386.95px;" class="animable"/>
    </g>
    <path d="M644.43,418.82a2.78,2.78,0,0,0-2.92,3,2.17,2.17,0,0,0,.19.66,2.65,2.65,0,0,0,2.84,1.51,3.46,3.46,0,0,0,2.33-3.06A2.41,2.41,0,0,0,644.43,418.82Z" style="fill: rgb(111, 68, 57); transform-origin: 644.186px 421.421px;" id="el1nfwq2w8yqc" class="animable"/>
    <path d="M642.73,379.85a2.79,2.79,0,0,0-2.92,3,2.26,2.26,0,0,0,.19.66,2.62,2.62,0,0,0,2.84,1.5,3.44,3.44,0,0,0,2.33-3.05A2.41,2.41,0,0,0,642.73,379.85Z" style="fill: rgb(111, 68, 57); transform-origin: 642.486px 382.448px;" id="elb5uut0yhb3r" class="animable"/>
    <path d="M670,385.54a3.83,3.83,0,0,0-4,4.17,3.54,3.54,0,0,0,4.16,3c1.56-.32,3.38-2.61,3.2-4.19A3.32,3.32,0,0,0,670,385.54Z" style="fill: rgb(111, 68, 57); transform-origin: 669.678px 389.153px;" id="elvrizutbdgk9" class="animable"/>
    <path d="M680,378.9a2.17,2.17,0,0,0-2.28,2.37,1.57,1.57,0,0,0,.15.51A2.05,2.05,0,0,0,680.1,383a2.7,2.7,0,0,0,1.82-2.39A1.88,1.88,0,0,0,680,378.9Z" style="fill: rgb(111, 68, 57); transform-origin: 679.815px 380.963px;" id="el5a4yu70ap3" class="animable"/>
    <path d="M584.77,380.52c-.06.13-7.57-3.34-16.77-7.74s-16.61-8.07-16.55-8.2,7.57,3.33,16.77,7.73S584.84,380.39,584.77,380.52Z" style="fill: rgb(38, 50, 56); transform-origin: 568.11px 372.55px;" id="ell8jo82w3lhp" class="animable"/>
    <path d="M554.89,365.81a3.26,3.26,0,1,1-1.53-4.35A3.26,3.26,0,0,1,554.89,365.81Z" style="fill: rgb(38, 50, 56); transform-origin: 551.951px 364.4px;" id="el2l5da8o2216" class="animable"/>
  </g>
  <g id="freepik--phase-2--inject-9" class="animable animator-active" style="transform-origin: 629.943px 261.046px;">
    <path d="M588.43,259.91c0,.14-8.27.26-18.47.26s-18.47-.12-18.47-.26,8.27-.26,18.47-.26S588.43,259.76,588.43,259.91Z" style="fill: rgb(38, 50, 56); transform-origin: 569.96px 259.91px;" id="elh3sfbbpxcd" class="animable"/>
    <path d="M555.13,260.28a3.27,3.27,0,1,1-3.27-3.26A3.26,3.26,0,0,1,555.13,260.28Z" style="fill: rgb(38, 50, 56); transform-origin: 551.86px 260.29px;" id="el81be609yulr" class="animable"/>
    <circle cx="649.86" cy="261.06" r="61.43" style="fill: rgb(245, 245, 245); transform-origin: 649.86px 261.06px;" id="elgftsj5l813l" class="animable"/>
    <path d="M600.38,224.65a61.16,61.16,0,0,0-10.16,21.69H709.5a61.16,61.16,0,0,0-10.16-21.69Z" style="fill: rgb(224, 224, 224); transform-origin: 649.86px 235.495px;" id="elon60dhbd19" class="animable"/>
    <path d="M711.29,261.06a61.81,61.81,0,0,0-1.78-14.69c-8.39,0-27.35,0-48.46,0a6.72,6.72,0,0,0-6.54,8.41l0,.09c1.05,3.81,5.38,7.86,6.53,11.64,1.35,4.38,1.67,8.06.12,12.37s-5,8-9.27,9.11c-6,1.58-12.78-2.56-14.4-8.75a19.21,19.21,0,0,1,1.07-12c1.55-3.74,5.73-7.28,6.12-11.33v-.1a8.77,8.77,0,0,0-8.79-9.47l-45.7,0a61.43,61.43,0,1,0,121.07,14.72Z" style="fill: rgb(255, 191, 157); transform-origin: 649.845px 284.416px;" id="elckagfef8jpc" class="animable"/>
    <path d="M642.93,260.44A10.48,10.48,0,0,0,644.7,256v-.1a8.77,8.77,0,0,0-8.79-9.47l-45.7,0a61.47,61.47,0,0,0-1.79,14.71Z" style="fill: none; transform-origin: 616.574px 253.785px;" id="el4h12kbchonm" class="animable"/>
    <path d="M709.51,246.37c-8.39,0-27.35,0-48.46,0a6.72,6.72,0,0,0-6.54,8.41l0,.09a19.68,19.68,0,0,0,2.91,5.38l53.83-.59A61.51,61.51,0,0,0,709.51,246.37Z" style="fill: none; transform-origin: 682.772px 253.31px;" id="elgffsyndz3c7" class="animable"/>
    <path d="M617.91,286.5c-3.44-.6-6.9.66-10.13,2s-6.58,2.75-10.06,2.52a8.62,8.62,0,0,1-1.24-.18,61.42,61.42,0,0,0,106.76,1.25,13.15,13.15,0,0,1-4.07-.72c-5.55-2-9.64-8.2-15.52-7.78-5.24.38-8.69,6-13.8,7.2-4.89,1.15-9.45-1.95-14.1-4.33a11.17,11.17,0,0,1-13.62-.8c-3.72,2.1-7,5.47-11.23,5.54C626.26,291.26,622.48,287.29,617.91,286.5Z" style="fill: rgb(255, 154, 108); transform-origin: 649.86px 303.041px;" id="elc4elcqndzhh" class="animable"/>
    <path d="M711.27,259.69l-53.83.59c1.46,2.11,3,4.23,3.62,6.26a28.38,28.38,0,0,1,.94,4,16.43,16.43,0,0,1-.82,8.34,15.12,15.12,0,0,1-5.78,7.53c4.64,2.38,9.2,5.48,14.09,4.33,5.11-1.21,8.56-6.82,13.8-7.2,5.88-.42,10,5.81,15.52,7.78a13.15,13.15,0,0,0,4.07.72,61.45,61.45,0,0,0,8.41-31C711.29,260.6,711.28,260.14,711.27,259.69Z" style="fill: rgb(64, 123, 255); transform-origin: 683.345px 275.865px;" id="elzs3wfq888p" class="animable"/>
    <path d="M637.51,279.27a17.17,17.17,0,0,1-.33-6.74,21.47,21.47,0,0,1,1.4-5.24c.95-2.3,2.9-4.53,4.35-6.85l-54.5.61h0a61,61,0,0,0,7.69,29.76,8.62,8.62,0,0,0,1.24.18c3.48.23,6.83-1.2,10.06-2.52s6.69-2.58,10.13-2c4.57.79,8.35,4.76,13,4.68,4.23-.07,7.51-3.44,11.23-5.54A12.09,12.09,0,0,1,637.51,279.27Z" style="fill: rgb(64, 123, 255); transform-origin: 615.68px 275.796px;" id="el58p1bxvb972" class="animable"/>
    <g id="elnrv0xd3kko">
      <g style="opacity: 0.2; transform-origin: 625.444px 270.13px;" class="animable">
        <path d="M630.07,265.55a3.68,3.68,0,0,0-3.83-2.34l-1.59.16a5.27,5.27,0,0,0-3.94,3.47,7.28,7.28,0,0,0,.4,5.36,11.77,11.77,0,0,0,3.49,4.19,2.6,2.6,0,0,0,1.4.68c1,.05,1.66-.82,2.14-1.63a18.24,18.24,0,0,0,2.05-5.11A7.72,7.72,0,0,0,630.07,265.55Z" style="fill: rgb(255, 255, 255); transform-origin: 625.444px 270.13px;" id="elzjc34o1x2gs" class="animable"/>
      </g>
    </g>
    <g id="ellt6tam69uhk">
      <path d="M614.91,273.7a5.41,5.41,0,0,0-3.8.22c-1.47.66-3.28,1.72-3.57,3.07-.49,2.34.49,5.53,1.6,6.39s6.51-.62,8.1-1.48,2.21-5.15,1.35-6.38C618.09,274.81,616.31,274.14,614.91,273.7Z" style="fill: rgb(255, 255, 255); opacity: 0.2; transform-origin: 613.194px 278.548px;" class="animable"/>
    </g>
    <g id="eldpitlnro2ba">
      <g style="opacity: 0.2; transform-origin: 605.677px 266.504px;" class="animable">
        <path d="M608.89,266a3.29,3.29,0,0,0-.69-1.65,3.18,3.18,0,0,0-4-.72h0c-1.4.41-2.08,2.74-1.59,4.12a3.23,3.23,0,0,0,3.52,2A3.53,3.53,0,0,0,608.89,266Z" style="fill: rgb(255, 255, 255); transform-origin: 605.677px 266.504px;" id="elq3bq3bd72fa" class="animable"/>
      </g>
    </g>
    <g id="elq27evmkfmp">
      <g style="opacity: 0.2; transform-origin: 631.443px 283.654px;" class="animable">
        <path d="M634.66,283.15a3.19,3.19,0,0,0-.69-1.65,3.15,3.15,0,0,0-4-.71h0c-1.41.4-2.09,2.73-1.6,4.11a3.22,3.22,0,0,0,3.52,2A3.51,3.51,0,0,0,634.66,283.15Z" style="fill: rgb(255, 255, 255); transform-origin: 631.443px 283.654px;" id="elfc33oov01lt" class="animable"/>
      </g>
    </g>
    <g id="elbf9c94yn8rj">
      <g style="opacity: 0.2; transform-origin: 597.58px 277.9px;" class="animable">
        <path d="M601.85,280.32c-.09-1.5-.25-3-.49-4.49a5.8,5.8,0,0,0-1.44-3.47,3.9,3.9,0,0,0-2.79-.94,7.76,7.76,0,0,0-2.89.77l-.89,1.37a11.61,11.61,0,0,0,.52,5.25,11.8,11.8,0,0,0,1.43,3.41,4.83,4.83,0,0,0,3,2.1,3.06,3.06,0,0,0,3.21-1.34A4.8,4.8,0,0,0,601.85,280.32Z" style="fill: rgb(255, 255, 255); transform-origin: 597.58px 277.9px;" id="elxmcirj2zrh" class="animable"/>
      </g>
    </g>
    <g id="el9kz6230a2zf">
      <g style="opacity: 0.2; transform-origin: 674.585px 268.651px;" class="animable">
        <path d="M681.42,266.66a6.6,6.6,0,0,0-5.09-3.2,33.77,33.77,0,0,0-7.18.3,1.8,1.8,0,0,0-1.19.86h0a2,2,0,0,0-.25.73c-.23,1.95-.82,3.9.24,5.55a6.67,6.67,0,0,0,4.21,2.7,19.07,19.07,0,0,0,5.12.24,5.12,5.12,0,0,0,3.27-.91,4.67,4.67,0,0,0,1.2-3.05A6.16,6.16,0,0,0,681.42,266.66Z" style="fill: rgb(255, 255, 255); transform-origin: 674.585px 268.651px;" id="el7mx9dxptud" class="animable"/>
      </g>
    </g>
    <g id="el7k9a8145zyx">
      <g style="opacity: 0.2; transform-origin: 670.383px 280.677px;" class="animable">
        <path d="M670.48,277.71l-1.29,0a3.22,3.22,0,0,0-1.75,3.69,3.17,3.17,0,0,0,3.42,2.22,3.11,3.11,0,0,0,2.56-3.15A3.08,3.08,0,0,0,670.48,277.71Z" style="fill: rgb(255, 255, 255); transform-origin: 670.383px 280.677px;" id="eldci1fnu9pos" class="animable"/>
      </g>
    </g>
    <g id="el53ynyruoqzi">
      <g style="opacity: 0.2; transform-origin: 703.614px 266.286px;" class="animable">
        <path d="M703.71,263.32l-1.29,0a3.23,3.23,0,0,0-1.75,3.69,3.18,3.18,0,0,0,3.42,2.22,3.11,3.11,0,0,0,2.56-3.15A3.07,3.07,0,0,0,703.71,263.32Z" style="fill: rgb(255, 255, 255); transform-origin: 703.614px 266.286px;" id="eljstgqmfxuy" class="animable"/>
      </g>
    </g>
    <g id="elteui8q6vshs">
      <g style="opacity: 0.2; transform-origin: 690.429px 274.011px;" class="animable">
        <path d="M696.14,269.89a3.54,3.54,0,0,0-3.32-2.56,8.48,8.48,0,0,0-4.3,1.17l-1,.71a20.34,20.34,0,0,0-2.32,4.08,6.79,6.79,0,0,0-.23,4.59,4.1,4.1,0,0,0,3.43,2.81,4.63,4.63,0,0,0,3-1c2.24-1.66,3.37-4.38,4.32-7A5.22,5.22,0,0,0,696.14,269.89Z" style="fill: rgb(255, 255, 255); transform-origin: 690.429px 274.011px;" id="elv5pycnuiud" class="animable"/>
      </g>
    </g>
    <g id="elqj8jfnlt7g">
      <g style="opacity: 0.2; transform-origin: 702.101px 278.697px;" class="animable">
        <path d="M703.87,275.2l-1.22,0a4.93,4.93,0,0,0-2.53,1.71,3.74,3.74,0,0,0-.7,2.92,3,3,0,0,0,1.93,2.24,2.55,2.55,0,0,0,2.78-.84,3.93,3.93,0,0,0,.61-1.93A5.32,5.32,0,0,0,703.87,275.2Z" style="fill: rgb(255, 255, 255); transform-origin: 702.101px 278.697px;" id="elnbz4dbeqfkt" class="animable"/>
      </g>
    </g>
    <path d="M711.29,261.06s0-.34,0-1,0-1.64-.14-2.92A61.42,61.42,0,0,0,687,212.33a61.17,61.17,0,0,0-25.79-11.43,60.58,60.58,0,0,0-15.78-.86,59.81,59.81,0,0,0-8.21,1.15,64.6,64.6,0,0,0-8.18,2.33,61.22,61.22,0,0,0,0,115.07,66.36,66.36,0,0,0,8.18,2.34,63.3,63.3,0,0,0,8.21,1.15,61,61,0,0,0,15.78-.87A61,61,0,0,0,687,309.78,61.44,61.44,0,0,0,711.1,265c.12-1.28.09-2.26.14-2.92s0-1,0-1,0,1.35-.09,3.92a59.39,59.39,0,0,1-1.67,11.11,61.16,61.16,0,0,1-6.75,16.44,62.11,62.11,0,0,1-15.6,17.54,61.4,61.4,0,0,1-25.94,11.57,61.44,61.44,0,0,1-15.9.89,62.31,62.31,0,0,1-8.26-1.14,65.71,65.71,0,0,1-8.25-2.35,61.68,61.68,0,0,1,0-116,63.56,63.56,0,0,1,8.25-2.34A61.52,61.52,0,0,1,687.17,212a62.17,62.17,0,0,1,15.61,17.55A61.49,61.49,0,0,1,709.53,246a59.39,59.39,0,0,1,1.67,11.11C711.33,259.7,711.29,261.06,711.29,261.06Z" style="fill: rgb(38, 50, 56); transform-origin: 649.691px 261.046px;" id="eliyng6bgor9c" class="animable"/>
    <path d="M640.27,245.42a8.86,8.86,0,0,1,4.75,4,26.18,26.18,0,0,1,2.42,5.83,5.65,5.65,0,0,0,.94,2,1.86,1.86,0,0,0,1.94.66c1-.36,1.25-1.69,1.41-2.78a15.87,15.87,0,0,1,7.72-11.33Z" style="fill: rgb(224, 224, 224); transform-origin: 649.86px 250.885px;" id="elk6amdpcx5sd" class="animable"/>
    <path d="M653.13,283.44c-2-4-9.16-6.2-13.68-6.17-1,2.54,1.2,6.14,3.74,7.83a10.33,10.33,0,0,0,8.77,1,2.13,2.13,0,0,0,1.45-1.07A2.17,2.17,0,0,0,653.13,283.44Z" style="fill: rgb(111, 68, 57); transform-origin: 646.33px 281.96px;" id="elsvlacqttj6" class="animable"/>
    <path d="M656.27,262.3h0a1.17,1.17,0,0,0-.64.49,8.6,8.6,0,0,0,3.13,12A1.73,1.73,0,0,0,660,275c.6-.32.75-1.33.78-1.8a15.7,15.7,0,0,0-2.87-10.42A1.63,1.63,0,0,0,656.27,262.3Z" style="fill: rgb(111, 68, 57); transform-origin: 657.597px 268.639px;" id="elwg17ghsyl1f" class="animable"/>
    <path d="M644.54,264.73c-.15-.25-.39-.51-.68-.46a4,4,0,0,0-1,.35,9.62,9.62,0,0,0-3.42,7.47,1.62,1.62,0,0,0,1.93,1.65,2.93,2.93,0,0,0,1.31-.55,6.26,6.26,0,0,0,1.49-2.13,9.49,9.49,0,0,0,1-3.14A5.18,5.18,0,0,0,644.54,264.73Z" style="fill: rgb(111, 68, 57); transform-origin: 642.324px 269.017px;" id="elgmp5v81296n" class="animable"/>
    <path d="M652.35,261.41A4.74,4.74,0,0,0,648.9,260a2.22,2.22,0,0,0-1.77,1,4.18,4.18,0,0,0-.6,2,5.12,5.12,0,0,0,.7,3.21,2.93,2.93,0,0,0,4.95.3,5,5,0,0,0,1-2.3A3,3,0,0,0,652.35,261.41Z" style="fill: rgb(224, 224, 224); transform-origin: 649.875px 263.866px;" id="elvuttuaceb3" class="animable"/>
    <path d="M646.24,272.36a3.33,3.33,0,0,0,0,2.65,1.57,1.57,0,0,0,1.15.89,2.88,2.88,0,0,0,1.48-.14,3.63,3.63,0,0,0,1.93-1.31,2.08,2.08,0,0,0-1.12-3.33,3.5,3.5,0,0,0-1.76,0A2.13,2.13,0,0,0,646.24,272.36Z" style="fill: rgb(224, 224, 224); transform-origin: 648.615px 273.474px;" id="el7r2f1qq2tcu" class="animable"/>
    <path d="M655.62,274.49a2.52,2.52,0,0,1,.61.18,4.56,4.56,0,0,1,1.77,1.27,3.34,3.34,0,0,1,.67,2.14,3.68,3.68,0,0,1-1.25,2.33c-.85.86-2,1.67-3.24,1.07a2.71,2.71,0,0,1-1.16-1.16,6.82,6.82,0,0,1-.94-2.35,3.82,3.82,0,0,1,.44-2.38,2.37,2.37,0,0,1,2.05-1.2Z" style="fill: rgb(224, 224, 224); transform-origin: 655.358px 278.039px;" id="elieoeq1sgiwl" class="animable"/>
    <g id="ely5n1ut125an">
      <g style="opacity: 0.4; transform-origin: 656.45px 277.779px;" class="animable">
        <path d="M657.12,276.93a1.34,1.34,0,0,1,.2.35,1.45,1.45,0,0,1-.52,1.37.85.85,0,0,1-.77.21c-.34-.11-.46-.53-.47-.89a1.48,1.48,0,0,1,.43-1,1,1,0,0,1,.54-.29A.68.68,0,0,1,657.12,276.93Z" style="fill: rgb(255, 255, 255); transform-origin: 656.45px 277.779px;" id="elnibtvcdr7s" class="animable"/>
      </g>
    </g>
    <g id="elzxeyr7jvj9a">
      <g style="opacity: 0.4; transform-origin: 649.807px 273.648px;" class="animable">
        <path d="M650.47,272.8a1.34,1.34,0,0,1,.2.35,1.44,1.44,0,0,1-.51,1.38.88.88,0,0,1-.77.2c-.35-.11-.47-.53-.47-.89a1.43,1.43,0,0,1,.43-1,.92.92,0,0,1,.53-.29A.66.66,0,0,1,650.47,272.8Z" style="fill: rgb(255, 255, 255); transform-origin: 649.807px 273.648px;" id="el562nopzpvy4" class="animable"/>
      </g>
    </g>
    <g id="el33g2gqoi0tg">
      <g style="opacity: 0.4; transform-origin: 651.56px 263.852px;" class="animable">
        <path d="M652.23,263a1.46,1.46,0,0,1,.2.36,1.44,1.44,0,0,1-.52,1.37.82.82,0,0,1-.77.2c-.34-.11-.46-.52-.47-.89a1.51,1.51,0,0,1,.43-1,1,1,0,0,1,.54-.29A.68.68,0,0,1,652.23,263Z" style="fill: rgb(255, 255, 255); transform-origin: 651.56px 263.852px;" id="eln4wqek950lo" class="animable"/>
      </g>
    </g>
    <g id="el5x28yif8vl5">
      <path d="M631.85,236.58a4.87,4.87,0,1,1-4.87-4.87A4.87,4.87,0,0,1,631.85,236.58Z" style="fill: rgb(255, 255, 255); opacity: 0.4; transform-origin: 626.98px 236.58px;" class="animable"/>
    </g>
    <g id="elu85eg5psh">
      <path d="M703.47,236.78a4.87,4.87,0,1,1-4.86-4.86A4.86,4.86,0,0,1,703.47,236.78Z" style="fill: rgb(255, 255, 255); opacity: 0.4; transform-origin: 698.6px 236.79px;" class="animable"/>
    </g>
    <g id="el24mu0bkf1lw">
      <path d="M666.88,233.45a4.87,4.87,0,1,1-4.87-4.87A4.86,4.86,0,0,1,666.88,233.45Z" style="fill: rgb(255, 255, 255); opacity: 0.4; transform-origin: 662.01px 233.45px;" class="animable"/>
    </g>
    <g id="elxbh0qtkj8aa">
      <path d="M606.22,234.54c1.34,2.33.85,5.13-1.09,6.25s-4.62.15-6-2.18-.86-5.12,1.09-6.25S604.87,232.22,606.22,234.54Z" style="fill: rgb(255, 255, 255); opacity: 0.4; transform-origin: 602.665px 236.574px;" class="animable"/>
    </g>
    <g id="el35pcsonhmy5">
      <path d="M675.17,239.18c-2,1.74-4.89,1.76-6.34,0s-1-4.51,1.08-6.25,4.88-1.76,6.34,0S677.22,237.44,675.17,239.18Z" style="fill: rgb(255, 255, 255); opacity: 0.4; transform-origin: 672.538px 236.055px;" class="animable"/>
    </g>
    <g id="el2jnxyykom7l">
      <circle cx="612.14" cy="233.26" r="3.24" style="fill: rgb(255, 255, 255); opacity: 0.4; transform-origin: 612.14px 233.26px;" class="animable"/>
    </g>
    <g id="ellqbqo7imfok">
      <path d="M604.61,233.77a1.12,1.12,0,1,1-1.79-.27A1.31,1.31,0,0,1,604.61,233.77Z" style="fill: rgb(255, 255, 255); opacity: 0.4; transform-origin: 603.617px 234.334px;" class="animable"/>
    </g>
    <g id="eluh1b8ckl5dk">
      <path d="M614.77,233.16c0,.81-.51,1.43-1,1.4s-.88-.71-.83-1.51.51-1.43,1-1.4S614.82,232.36,614.77,233.16Z" style="fill: rgb(255, 255, 255); opacity: 0.4; transform-origin: 613.855px 233.105px;" class="animable"/>
    </g>
    <g id="el1iroppyisbu">
      <path d="M631.21,236.33c-.06.94-.61,1.68-1.23,1.64s-1.08-.84-1-1.79.62-1.68,1.24-1.64S631.27,235.38,631.21,236.33Z" style="fill: rgb(255, 255, 255); opacity: 0.4; transform-origin: 630.093px 236.255px;" class="animable"/>
    </g>
    <g id="elxnx85e8k44m">
      <path d="M638.14,230a2.43,2.43,0,1,1-2.43-2.44A2.43,2.43,0,0,1,638.14,230Z" style="fill: rgb(255, 255, 255); opacity: 0.4; transform-origin: 635.71px 229.99px;" class="animable"/>
    </g>
    <g id="elfwubgen5gzn">
      <path d="M637.73,230.08c-.05.77-.5,1.36-1,1.33s-.87-.68-.82-1.44.5-1.36,1-1.33S637.78,229.32,637.73,230.08Z" style="fill: rgb(255, 255, 255); opacity: 0.4; transform-origin: 636.82px 230.025px;" class="animable"/>
    </g>
    <g id="eljz3dj64t4qj">
      <path d="M650.69,244.32a2.43,2.43,0,1,1-3.33-.89A2.43,2.43,0,0,1,650.69,244.32Z" style="fill: rgb(255, 255, 255); opacity: 0.4; transform-origin: 648.583px 245.53px;" class="animable"/>
    </g>
    <g id="elkpbt5ghpjtp">
      <path d="M650.35,244.58c.34.69.25,1.42-.2,1.65s-1.09-.16-1.42-.84-.25-1.43.2-1.65S650,243.89,650.35,244.58Z" style="fill: rgb(255, 255, 255); opacity: 0.4; transform-origin: 649.542px 244.986px;" class="animable"/>
    </g>
    <g id="el9d44g087tqp">
      <path d="M689.53,239a2.43,2.43,0,1,1-3.33-.89A2.45,2.45,0,0,1,689.53,239Z" style="fill: rgb(255, 255, 255); opacity: 0.4; transform-origin: 687.423px 240.214px;" class="animable"/>
    </g>
    <g id="el2o7cdjk66v">
      <path d="M689.19,239.29c.34.69.25,1.42-.2,1.65s-1.09-.16-1.42-.84-.25-1.43.2-1.65S688.86,238.6,689.19,239.29Z" style="fill: rgb(255, 255, 255); opacity: 0.4; transform-origin: 688.382px 239.696px;" class="animable"/>
    </g>
    <g id="elqcs3fxzfu9">
      <path d="M686.73,228.79a3.77,3.77,0,1,1-5.15-1.38A3.77,3.77,0,0,1,686.73,228.79Z" style="fill: rgb(255, 255, 255); opacity: 0.4; transform-origin: 683.465px 230.675px;" class="animable"/>
    </g>
    <g id="el18kho8xgbfi">
      <path d="M686.21,229.2c.53,1.06.39,2.2-.31,2.54s-1.68-.23-2.21-1.3-.39-2.2.31-2.55S685.69,228.13,686.21,229.2Z" style="fill: rgb(255, 255, 255); opacity: 0.4; transform-origin: 684.95px 229.814px;" class="animable"/>
    </g>
    <g id="el9kn7kje36n9">
      <path d="M649.06,236a3.24,3.24,0,1,1-3.24-3.24A3.25,3.25,0,0,1,649.06,236Z" style="fill: rgb(255, 255, 255); opacity: 0.4; transform-origin: 645.82px 236px;" class="animable"/>
    </g>
    <g id="elomvpcuchhf">
      <path d="M648,235.81c0,.76-.5,1.35-1,1.32s-.87-.68-.82-1.44.5-1.36,1-1.32S648.06,235,648,235.81Z" style="fill: rgb(255, 255, 255); opacity: 0.4; transform-origin: 647.091px 235.75px;" class="animable"/>
    </g>
    <g id="elap02ar1f5vv">
      <path d="M665.85,233.28c-.08,1.28-.83,2.28-1.67,2.22s-1.45-1.13-1.37-2.41.83-2.28,1.67-2.22S665.94,232,665.85,233.28Z" style="fill: rgb(255, 255, 255); opacity: 0.4; transform-origin: 664.331px 233.185px;" class="animable"/>
    </g>
    <g id="elcc7wvb9q43">
      <path d="M676.48,235.35c0,.65-.41,1.14-.83,1.12s-.73-.57-.69-1.21.42-1.14.84-1.11S676.53,234.71,676.48,235.35Z" style="fill: rgb(255, 255, 255); opacity: 0.4; transform-origin: 675.721px 235.31px;" class="animable"/>
    </g>
    <g id="elwugyn2jnqrh">
      <path d="M701.24,238c0,.64-.42,1.14-.84,1.11s-.73-.57-.68-1.21.41-1.13.83-1.11S701.28,237.35,701.24,238Z" style="fill: rgb(255, 255, 255); opacity: 0.4; transform-origin: 700.479px 237.95px;" class="animable"/>
    </g>
  </g>
  <g id="freepik--phase-1--inject-9" class="animable animator-active" style="transform-origin: 625.45px 109.417px;">
    <path d="M594,122.1c.06.13-10,5-22.45,10.77s-22.61,10.42-22.67,10.29,10-4.95,22.45-10.77S593.91,122,594,122.1Z" style="fill: rgb(38, 50, 56); transform-origin: 571.44px 132.631px;" id="el58znrvjm0pg" class="animable"/>
    <path d="M553.31,143.16a3.27,3.27,0,1,1-3.26-3.26A3.26,3.26,0,0,1,553.31,143.16Z" style="fill: rgb(38, 50, 56); transform-origin: 550.04px 143.17px;" id="elew1zhuwxm7e" class="animable"/>
    <circle cx="642.66" cy="109.42" r="61.43" style="fill: rgb(245, 245, 245); transform-origin: 642.66px 109.42px;" id="eloxypz8591r" class="animable"/>
    <path d="M704.09,109.42a61.22,61.22,0,0,0-1.78-14.68c-8.39,0-27.35,0-48.45,0a6.73,6.73,0,0,0-6.55,8.4l0,.1c1,3.81,5.37,7.86,6.53,11.64,1.34,4.38,1.66,8.06.12,12.37s-5,8-9.27,9.11c-6,1.58-12.79-2.56-14.41-8.76a19.18,19.18,0,0,1,1.08-12c1.54-3.75,5.72-7.29,6.12-11.34v-.1a8.78,8.78,0,0,0-8.8-9.47l-45.7,0a61.43,61.43,0,1,0,121.07,14.72Z" style="fill: rgb(255, 191, 157); transform-origin: 642.64px 132.766px;" id="ely3cow0xrav" class="animable"/>
    <path d="M645.14,99.05c.28,3.54.19,5.25.77,7.55.75,3,4.75,8.18,5.65,11.11,1,3.4,1.29,6.25.09,9.6a11,11,0,0,1-7.19,7.06c-4.63,1.23-9.92-2-11.18-6.79a14.92,14.92,0,0,1,.84-9.29c1.2-2.9,3.73-6.06,4.8-9.3,0,0,1.43-7.55,1.55-9.33C640.75,95.72,644.86,95.55,645.14,99.05Z" style="fill: rgb(111, 68, 57); transform-origin: 642.665px 115.595px;" id="elzjanj6nn36" class="animable"/>
    <path d="M676.1,131.93c-5.24.38-8.7,6-13.81,7.2-4.88,1.15-9.45-1.94-14.09-4.32a12,12,0,0,1-3.48,1.58A11.77,11.77,0,0,1,634.58,134c-3.72,2.1-7,5.47-11.24,5.54-4.64.09-8.41-3.88-13-4.68-3.44-.6-6.91.66-10.14,2s-6.58,2.76-10.06,2.52a8.66,8.66,0,0,1-1.23-.17,61.42,61.42,0,0,0,106.75,1.25,13.83,13.83,0,0,1-4.07-.72C686.06,137.75,682,131.51,676.1,131.93Z" style="fill: rgb(255, 154, 108); transform-origin: 642.285px 151.392px;" id="elq7231a30ie" class="animable"/>
    <path d="M653.87,114.91c1.34,4.38,1.66,8.06.12,12.37a15.28,15.28,0,0,1-5.79,7.53c4.64,2.38,9.21,5.47,14.09,4.32,5.11-1.2,8.57-6.82,13.81-7.2,5.87-.42,10,5.82,15.51,7.79a13.83,13.83,0,0,0,4.07.72,61.13,61.13,0,0,0,8.41-31c0-.46,0-.91,0-1.37l-53.82.59C651.7,110.76,653.25,112.87,653.87,114.91Z" style="fill: rgb(64, 123, 255); transform-origin: 676.145px 124.255px;" id="el5j0uztsnidu" class="animable"/>
    <path d="M600.22,136.84c3.23-1.32,6.7-2.58,10.14-2,4.57.8,8.34,4.77,13,4.68,4.23-.07,7.52-3.44,11.24-5.54a12.05,12.05,0,0,1-4.27-6.37,19.18,19.18,0,0,1,1.08-12c1-2.31,2.9-4.54,4.35-6.85l-54.51.6h0a61.12,61.12,0,0,0,7.7,29.77,8.66,8.66,0,0,0,1.23.17C593.64,139.6,597,138.16,600.22,136.84Z" style="fill: rgb(64, 123, 255); transform-origin: 608.505px 124.141px;" id="el84dmi8p1klx" class="animable"/>
    <g id="elduzj2w0pnl">
      <g style="opacity: 0.2; transform-origin: 618.235px 118.493px;" class="animable">
        <path d="M622.88,113.92a3.67,3.67,0,0,0-3.84-2.34l-1.59.16a5.24,5.24,0,0,0-3.93,3.47,7.2,7.2,0,0,0,.39,5.35,11.9,11.9,0,0,0,3.49,4.2,2.69,2.69,0,0,0,1.41.67c.94,0,1.66-.81,2.14-1.63a18.43,18.43,0,0,0,2-5.11A7.76,7.76,0,0,0,622.88,113.92Z" style="fill: rgb(255, 255, 255); transform-origin: 618.235px 118.493px;" id="elulzxbnx10go" class="animable"/>
      </g>
    </g>
    <g id="el8qpawwnhquk">
      <path d="M607.71,122.06a5.38,5.38,0,0,0-3.79.22c-1.48.66-3.29,1.72-3.57,3.08-.49,2.33.49,5.52,1.59,6.38s6.51-.61,8.11-1.47,2.21-5.16,1.35-6.39C610.9,123.17,609.12,122.5,607.71,122.06Z" style="fill: rgb(255, 255, 255); opacity: 0.2; transform-origin: 606.005px 126.908px;" class="animable"/>
    </g>
    <g id="eloyw2lnmrxyh">
      <g style="opacity: 0.2; transform-origin: 598.477px 114.829px;" class="animable">
        <path d="M601.69,114.33a3.36,3.36,0,0,0-.69-1.65,3.17,3.17,0,0,0-4-.72h0c-1.4.4-2.08,2.73-1.59,4.11a3.21,3.21,0,0,0,3.52,2A3.52,3.52,0,0,0,601.69,114.33Z" style="fill: rgb(255, 255, 255); transform-origin: 598.477px 114.829px;" id="ely6s9rrl2svp" class="animable"/>
      </g>
    </g>
    <g id="elqwg508pncp">
      <g style="opacity: 0.2; transform-origin: 624.257px 132.024px;" class="animable">
        <path d="M627.47,131.52a3.29,3.29,0,0,0-.69-1.65,3.18,3.18,0,0,0-4-.72h0c-1.4.4-2.08,2.74-1.59,4.12a3.23,3.23,0,0,0,3.52,2A3.53,3.53,0,0,0,627.47,131.52Z" style="fill: rgb(255, 255, 255); transform-origin: 624.257px 132.024px;" id="el5mlbm2u2w35" class="animable"/>
      </g>
    </g>
    <g id="elbxown8r654">
      <g style="opacity: 0.2; transform-origin: 590.376px 126.259px;" class="animable">
        <path d="M594.65,128.69a42.38,42.38,0,0,0-.48-4.5,5.88,5.88,0,0,0-1.45-3.47,3.92,3.92,0,0,0-2.78-.94,8,8,0,0,0-2.9.77l-.89,1.38a11.7,11.7,0,0,0,.52,5.24,11.56,11.56,0,0,0,1.44,3.41,4.8,4.8,0,0,0,2.95,2.1,3.07,3.07,0,0,0,3.21-1.34A4.77,4.77,0,0,0,594.65,128.69Z" style="fill: rgb(255, 255, 255); transform-origin: 590.376px 126.259px;" id="el9i3twzgfnms" class="animable"/>
      </g>
    </g>
    <g id="eln95q8l2mybp">
      <g style="opacity: 0.2; transform-origin: 667.401px 117.02px;" class="animable">
        <path d="M674.23,115a6.64,6.64,0,0,0-5.09-3.2,34.41,34.41,0,0,0-7.18.3,1.85,1.85,0,0,0-1.2.86h0a1.85,1.85,0,0,0-.24.73c-.24,2-.82,3.9.23,5.55A6.67,6.67,0,0,0,665,122a19.85,19.85,0,0,0,5.11.24,5.11,5.11,0,0,0,3.27-.92,4.55,4.55,0,0,0,1.2-3.05A6.26,6.26,0,0,0,674.23,115Z" style="fill: rgb(255, 255, 255); transform-origin: 667.401px 117.02px;" id="elhy1qo0g20m6" class="animable"/>
      </g>
    </g>
    <g id="elp8ttjj0kqp">
      <g style="opacity: 0.2; transform-origin: 663.185px 129.051px;" class="animable">
        <path d="M663.29,126.08l-1.29,0a3.26,3.26,0,0,0-1.76,3.7,3.19,3.19,0,0,0,3.42,2.22,3.13,3.13,0,0,0,2.56-3.16A3.06,3.06,0,0,0,663.29,126.08Z" style="fill: rgb(255, 255, 255); transform-origin: 663.185px 129.051px;" id="eluysuqzjsvso" class="animable"/>
      </g>
    </g>
    <g id="ellzxmzenbwb">
      <g style="opacity: 0.2; transform-origin: 696.418px 114.661px;" class="animable">
        <path d="M696.52,111.69l-1.29,0a3.24,3.24,0,0,0-1.75,3.7,3.19,3.19,0,0,0,3.42,2.22,3.13,3.13,0,0,0,2.55-3.16A3.06,3.06,0,0,0,696.52,111.69Z" style="fill: rgb(255, 255, 255); transform-origin: 696.418px 114.661px;" id="elv6no55yxjii" class="animable"/>
      </g>
    </g>
    <g id="el367otf9dhl8">
      <g style="opacity: 0.2; transform-origin: 683.225px 122.375px;" class="animable">
        <path d="M688.94,118.25a3.55,3.55,0,0,0-3.32-2.56,8.48,8.48,0,0,0-4.3,1.17l-1,.72a19.79,19.79,0,0,0-2.32,4.07,6.7,6.7,0,0,0-.23,4.6,4.12,4.12,0,0,0,3.43,2.81,4.74,4.74,0,0,0,3-1c2.23-1.66,3.36-4.39,4.32-7A5.3,5.3,0,0,0,688.94,118.25Z" style="fill: rgb(255, 255, 255); transform-origin: 683.225px 122.375px;" id="eljhry22tv69" class="animable"/>
      </g>
    </g>
    <g id="elrtu6op49foi">
      <g style="opacity: 0.2; transform-origin: 694.908px 127.053px;" class="animable">
        <path d="M696.68,123.56h-1.23a4.79,4.79,0,0,0-2.52,1.7,3.7,3.7,0,0,0-.7,2.92,3,3,0,0,0,1.93,2.24,2.52,2.52,0,0,0,2.77-.84,3.93,3.93,0,0,0,.62-1.92A5.38,5.38,0,0,0,696.68,123.56Z" style="fill: rgb(255, 255, 255); transform-origin: 694.908px 127.053px;" id="elwd3isef46sp" class="animable"/>
      </g>
    </g>
    <path d="M704.09,109.42s0-.34-.05-1,0-1.64-.14-2.91a61.33,61.33,0,0,0-24.15-44.82A61,61,0,0,0,654,49.26a61,61,0,0,0-15.78-.86,59.67,59.67,0,0,0-8.2,1.15,66.3,66.3,0,0,0-8.18,2.33,61.23,61.23,0,0,0,0,115.08,66.3,66.3,0,0,0,8.18,2.33,59.89,59.89,0,0,0,8.2,1.15,60.63,60.63,0,0,0,15.79-.87,59.4,59.4,0,0,0,14.08-4.44,60.33,60.33,0,0,0,11.71-7,62.26,62.26,0,0,0,15.58-17.41,61.34,61.34,0,0,0,6.8-16.33,62.47,62.47,0,0,0,1.76-11.08c.12-1.28.1-2.26.14-2.91s.05-1,.05-1,0,1.35-.08,3.92a60.41,60.41,0,0,1-8.42,27.55A62.34,62.34,0,0,1,680,158.44,61.43,61.43,0,0,1,654.05,170a62.46,62.46,0,0,1-24.17-.25,67.38,67.38,0,0,1-8.25-2.34,61.69,61.69,0,0,1,0-116,67.38,67.38,0,0,1,8.25-2.34A62.43,62.43,0,0,1,654,48.84,61.4,61.4,0,0,1,680,60.4a62.31,62.31,0,0,1,15.61,17.54A60.49,60.49,0,0,1,704,105.5C704.13,108.07,704.09,109.42,704.09,109.42Z" style="fill: rgb(38, 50, 56); transform-origin: 642.543px 109.417px;" id="eludwds3tyyuo" class="animable"/>
  </g>
  <g id="freepik--character-1--inject-9" class="animable" style="transform-origin: 276.617px 278.286px;">
    <path d="M174.62,98.19c-20-.72-40.06,9.48-49.17,25.06s-6.81,35.69,5.64,49.4c-9.87,4.11-13.61,16.5-7.34,24.31s20.89,9,28.71,2.32c-4.7,8.71.47,19.92,9.94,24.86s21.88,4.22,31.7-.17,17.29-12,22.94-20.28l4.19-77C213.64,110.54,194.66,98.92,174.62,98.19Z" style="fill: rgb(38, 50, 56); transform-origin: 170.571px 162.858px;" id="el8ftkb0cqd95" class="animable"/>
    <path d="M189.84,126.43c-5.35,3-9.11,8.23-12.42,13.42-9.11,14.3-16.28,31-13.88,47.83a19,19,0,0,0,2.13,7c3.43,5.91,10.91,7.8,17.6,9.14a7,7,0,0,0,3.93,0,6.55,6.55,0,0,0,2.45-2,56.43,56.43,0,0,0,8-12l9.48-62.76C202.5,123,195.18,123.38,189.84,126.43Z" style="fill: rgb(64, 123, 255); transform-origin: 185.101px 164.09px;" id="elhde6vpzhrnj" class="animable"/>
    <path d="M176.41,202.86c-7.78-9.4-7.26-24.62,1.14-33.47-5-5.82-3.59-15.13,1-21.23s11.72-9.76,18.56-13.22c3.2-17.67,22.46-30.7,40.05-27.1,8.62-13.68,27.91-16.45,43.58-12.48,3.83,1,7.67,2.27,11.61,2.11,2.9-.11,5.7-1,8.56-1.49,15.7-2.68,31.76,7.88,38.43,22.35,1.07,2.32,2,4.76,3.59,6.72,2.14,2.57,5.3,4,8,6a25.19,25.19,0,0,1,10.31,18.29c.48,6.12-1.25,12.7,1.53,18.17,1.39,2.75,3.81,4.92,4.92,7.79,3.21,8.32-5.82,17.25-3.78,25.93.42,1.78,1.28,3.41,1.83,5.14a15.55,15.55,0,0,1-.56,10.91c-1.16,2.63-3.08,5.06-3.15,7.93-.05,2.18,1,4.22,1.5,6.34,1.25,5.18-9.3,25.7-13.71,28.69l-134.72,5.95a25.21,25.21,0,0,1-20.25-21c-.22-1.71-.31-3.58-1.43-4.91-1-1.13-2.44-1.61-3.76-2.26-8.84-4.35-10.31-16.23-9.74-26.07a12,12,0,0,0-.22-4.11C179.2,205.88,177.69,204.41,176.41,202.86Z" style="fill: rgb(38, 50, 56); transform-origin: 269.642px 179.945px;" id="elegbie48q1m" class="animable"/>
    <path d="M215,201.7c-1.24-23.84,12.75-51.77,36-64.27,14.68-7.87,26.33-8.33,34.15-9.52,17.51-2.67,32,5.55,32,5.55,7.49,1.48,35.59,25.45,37.95,52.44,2.63,30,3.79,66.61,1.65,89.21-3.9,41-41,45.25-41,45.25s6.36,81.21,6.36,81.21l-93.52-33Z" style="fill: rgb(255, 191, 157); transform-origin: 286.394px 264.473px;" id="elpk54amn55y" class="animable"/>
    <path d="M351.19,272.9a2.79,2.79,0,1,1-2.79-2.71A2.75,2.75,0,0,1,351.19,272.9Z" style="fill: rgb(255, 154, 108); transform-origin: 348.401px 272.98px;" id="eldg9idy1cp14" class="animable"/>
    <path d="M350.13,272.9a1.73,1.73,0,1,1-1.73-1.68A1.7,1.7,0,0,1,350.13,272.9Z" style="fill: rgb(64, 123, 255); transform-origin: 348.401px 272.95px;" id="elagevc74gkjb" class="animable"/>
    <path d="M293.88,180.71a2.79,2.79,0,1,1-2.79-2.72A2.76,2.76,0,0,1,293.88,180.71Z" style="fill: rgb(255, 154, 108); transform-origin: 291.091px 180.78px;" id="elra2bodtkop" class="animable"/>
    <path d="M292.82,180.71a1.73,1.73,0,1,1-1.73-1.69A1.71,1.71,0,0,1,292.82,180.71Z" style="fill: rgb(64, 123, 255); transform-origin: 291.09px 180.75px;" id="el7kzd6ai9ex" class="animable"/>
    <path d="M330.27,307A2.26,2.26,0,1,1,328,304.8,2.23,2.23,0,0,1,330.27,307Z" style="fill: rgb(255, 154, 108); transform-origin: 328.011px 307.06px;" id="elco6ncqwa1pc" class="animable"/>
    <path d="M329.42,307a1.41,1.41,0,1,1-1.4-1.37A1.38,1.38,0,0,1,329.42,307Z" style="fill: rgb(64, 123, 255); transform-origin: 328.011px 307.04px;" id="ele5az9vqonbc" class="animable"/>
    <path d="M276.63,262.92a2.79,2.79,0,1,1-2.78-2.72A2.76,2.76,0,0,1,276.63,262.92Z" style="fill: rgb(255, 154, 108); transform-origin: 273.841px 262.99px;" id="elrdmsiwcpxgo" class="animable"/>
    <path d="M275.58,262.92a1.73,1.73,0,1,1-1.73-1.69A1.72,1.72,0,0,1,275.58,262.92Z" style="fill: rgb(64, 123, 255); transform-origin: 273.85px 262.96px;" id="ely292igsuef" class="animable"/>
    <path d="M251.06,246.46a2.26,2.26,0,1,1-2.25-2.2A2.23,2.23,0,0,1,251.06,246.46Z" style="fill: rgb(255, 154, 108); transform-origin: 248.801px 246.52px;" id="elo3m3jcpv8pa" class="animable"/>
    <path d="M250.21,246.46a1.41,1.41,0,1,1-1.4-1.37A1.39,1.39,0,0,1,250.21,246.46Z" style="fill: rgb(111, 68, 57); transform-origin: 248.801px 246.5px;" id="el9xw2rinpstg" class="animable"/>
    <path d="M343.53,280.38a1.69,1.69,0,1,1-1.69-1.65A1.67,1.67,0,0,1,343.53,280.38Z" style="fill: rgb(255, 154, 108); transform-origin: 341.84px 280.42px;" id="elg4cxg9t3c1v" class="animable"/>
    <path d="M342.89,280.38a1.05,1.05,0,1,1-1.05-1A1,1,0,0,1,342.89,280.38Z" style="fill: rgb(111, 68, 57); transform-origin: 341.841px 280.429px;" id="elfmlyurjk5qt" class="animable"/>
    <path d="M293.46,173a1.69,1.69,0,1,1-1.69-1.65A1.67,1.67,0,0,1,293.46,173Z" style="fill: rgb(255, 154, 108); transform-origin: 291.77px 173.04px;" id="el7w2cgec1vnd" class="animable"/>
    <path d="M292.82,173a1.05,1.05,0,1,1-1.05-1A1,1,0,0,1,292.82,173Z" style="fill: rgb(111, 68, 57); transform-origin: 291.771px 173.049px;" id="elgz9fqiaqahr" class="animable"/>
    <path d="M334.28,300.51a.85.85,0,1,1-.85-.82A.84.84,0,0,1,334.28,300.51Z" style="fill: rgb(255, 154, 108); transform-origin: 333.431px 300.54px;" id="elyqrj0s7287n" class="animable"/>
    <ellipse cx="333.43" cy="300.51" rx="0.53" ry="0.51" style="fill: rgb(111, 68, 57); transform-origin: 333.43px 300.51px;" id="el1s183p4zzbk" class="animable"/>
    <path d="M321.19,305.54a.85.85,0,1,1-.85-.82A.84.84,0,0,1,321.19,305.54Z" style="fill: rgb(255, 154, 108); transform-origin: 320.341px 305.57px;" id="eldw6k90qi8pm" class="animable"/>
    <path d="M320.87,305.54a.52.52,0,0,1-.53.51.51.51,0,1,1,0-1A.52.52,0,0,1,320.87,305.54Z" style="fill: rgb(111, 68, 57); transform-origin: 320.3px 305.55px;" id="elrlyemjpaosp" class="animable"/>
    <path d="M284.19,257.81a1.69,1.69,0,1,1-1.69-1.65A1.67,1.67,0,0,1,284.19,257.81Z" style="fill: rgb(255, 154, 108); transform-origin: 282.5px 257.85px;" id="el3kknw1rcokn" class="animable"/>
    <path d="M283.55,257.81a1.05,1.05,0,1,1-1.05-1A1,1,0,0,1,283.55,257.81Z" style="fill: rgb(111, 68, 57); transform-origin: 282.501px 257.859px;" id="eleg2t5qjnzb" class="animable"/>
    <path d="M292.67,270.62a8.82,8.82,0,0,1,2.61-5.68,9,9,0,0,1,10.88-1.49c3.49,2,4.22,5.87,3.94,10.27h0c-1.65,2.7-2.82,5.34-5.94,5.86a12.26,12.26,0,0,1-1.47.17,9.88,9.88,0,0,1-6.85-2.1A8.82,8.82,0,0,1,292.67,270.62Z" style="fill: rgb(255, 154, 108); transform-origin: 301.41px 271.018px;" id="eli0chi8v3vi" class="animable"/>
    <path d="M336.16,223.8a5.76,5.76,0,0,1-5.43,6,5.52,5.52,0,0,1-6.08-5.06,5.78,5.78,0,0,1,5.42-6A5.53,5.53,0,0,1,336.16,223.8Z" style="fill: rgb(38, 50, 56); transform-origin: 330.405px 224.27px;" id="eluyph1n0bjgs" class="animable"/>
    <path d="M345.25,203.45c-.7.77-5.15-2.36-11.37-2.19s-10.7,3.39-11.4,2.64c-.34-.33.36-1.7,2.31-3.2a15.88,15.88,0,0,1,9.1-3,15.24,15.24,0,0,1,9.08,2.69C344.92,201.76,345.6,203.1,345.25,203.45Z" style="fill: rgb(38, 50, 56); transform-origin: 333.868px 200.854px;" id="el4nqmac4t60u" class="animable"/>
    <path d="M310.06,253.45c0-.35,3.82-1.11,10.06-2.07,1.58-.2,3.08-.55,3.32-1.64s-.36-2.85-1.17-4.68q-2.38-5.72-5-12c-6.94-17.06-12-31.1-11.32-31.37s6.88,13.33,13.82,30.38c1.68,4.21,3.28,8.22,4.8,12.06.65,1.79,1.73,3.81,1,6.21a4,4,0,0,1-2.56,2.39,11.19,11.19,0,0,1-2.69.44C314,253.68,310.1,253.81,310.06,253.45Z" style="fill: rgb(38, 50, 56); transform-origin: 315.851px 227.67px;" id="elyt984mmjmo" class="animable"/>
    <path d="M315.88,320.47s-30.47,2.71-60.95-14.61c0,0,16.84,31.37,61.85,26.05Z" style="fill: rgb(255, 154, 108); transform-origin: 285.855px 319.189px;" id="elisxby2xrpe" class="animable"/>
    <path d="M340.56,178.68c-1,1.55-5.8.65-11.35,1.25-5.57.42-10.13,2.17-11.39.83-.56-.65,0-2.15,1.91-3.72A17.67,17.67,0,0,1,338,175.36C340.18,176.57,341,177.93,340.56,178.68Z" style="fill: rgb(38, 50, 56); transform-origin: 329.144px 177.413px;" id="elfn5clci28t" class="animable"/>
    <path d="M268.07,225.69a5.79,5.79,0,0,0,5.93,5.48,5.53,5.53,0,0,0,5.62-5.57,5.79,5.79,0,0,0-5.92-5.49A5.54,5.54,0,0,0,268.07,225.69Z" style="fill: rgb(38, 50, 56); transform-origin: 273.845px 225.64px;" id="elvtx8u36bfl" class="animable"/>
    <path d="M260.22,208c.76.71,4.93-2.79,11.14-3.16s11,2.45,11.58,1.65c.31-.36-.5-1.67-2.57-3a15.91,15.91,0,0,0-9.33-2.26,15.3,15.3,0,0,0-8.81,3.46C260.41,206.26,259.85,207.66,260.22,208Z" style="fill: rgb(38, 50, 56); transform-origin: 271.558px 204.644px;" id="eltbvyp0c49oi" class="animable"/>
    <path d="M259.36,183.6c1.31,1.33,6-.43,11.76-.85,5.74-.61,10.7.29,11.73-1.26.45-.75-.41-2.11-2.62-3.31a18.81,18.81,0,0,0-18.93,1.69C259.35,181.45,258.77,182.94,259.36,183.6Z" style="fill: rgb(38, 50, 56); transform-origin: 271.053px 180.236px;" id="elw0jv2x9b1dn" class="animable"/>
    <path d="M223.33,244.23c-.09-3.36-4.16-11.17-7.49-11.61C207,231.46,191,232.56,191.42,255c.55,30.73,31.29,23.84,31.33,23C222.78,277.31,223.64,255.82,223.33,244.23Z" style="fill: rgb(255, 191, 157); transform-origin: 207.405px 255.777px;" id="el217enknasoh" class="animable"/>
    <path d="M214.07,266.92c-.14-.09-.53.39-1.43.82a5.36,5.36,0,0,1-4,.15c-3.27-1.13-6.09-6.24-6.34-11.77a17.72,17.72,0,0,1,1.36-7.7c.9-2.26,2.33-3.86,4-4.18a2.74,2.74,0,0,1,3.18,1.41c.43.85.24,1.47.41,1.52s.65-.52.38-1.79a3.36,3.36,0,0,0-1.25-1.9,4,4,0,0,0-3-.73c-2.37.2-4.46,2.42-5.51,4.86a18.3,18.3,0,0,0-1.7,8.6c.31,6.19,3.58,11.93,8.05,13.13a5.72,5.72,0,0,0,4.88-.9C214,267.67,214.18,267,214.07,266.92Z" style="fill: rgb(255, 154, 108); transform-origin: 207.124px 256.121px;" id="elhiiyz0nxiju" class="animable"/>
    <path d="M362,186.16c-6.3-3.72-10.39-8.9-10.19-16.22-4.09,1.33-8.4-3.87-10.89-7.37s-5.48-5.23-5.4-9.52a5,5,0,0,0-.37-2.49c-.65-1.16-2.13-1.51-3.41-1.87a20.58,20.58,0,0,1-13.91-14,43.54,43.54,0,0,1-21,4,16.65,16.65,0,0,1-28.19-.52c-1.77,3.89-5.69,6.46-9.8,7.61s-8.46,1.09-12.73,1c2.05,8.21-3.08,17.56-11.1,20.25-1.08.36-2.34.73-2.81,1.77s.11,2.31.56,3.41c2.86,7-1.58,15.94-8.85,17.89,5.13,3.77,4.83,12.8-.52,16.23-1.1.7-2.54,1.55-2.34,2.84a2.94,2.94,0,0,0,.71,1.29c2.36,3,4.73,6.25,5.1,10s-2.08,8.11-5.88,8.37c2,1.72,4,4,4.07,6.63s-2.52,5.46-5,4.56c-1.07-.39-16.45-3-17.14-3.91-9-11.58,1.61-24.89,2.1-39.55s5.25-29,12.24-41.84a69.8,69.8,0,0,1,10.54-15.08c4.84-5.07,10.72-9,16.58-12.86,7.64-5,15.51-10.05,24.35-12.37,16.48-4.33,33.86,1.26,49.51,8,5.95,2.57,11.89,5.36,16.94,9.42,6,4.86,10.56,11.35,14.52,18,5.73,9.63,10.55,20.06,11.91,31.18" style="fill: rgb(38, 50, 56); transform-origin: 280.651px 176.538px;" id="elokc9mz1qkl" class="animable"/>
    <path d="M367.76,175.26A11.74,11.74,0,0,0,366,172c-.68-1-1.63-2.18-2.54-3.68a14.19,14.19,0,0,1-1.87-5.69,44.36,44.36,0,0,1-.07-7.61,33.72,33.72,0,0,0-.48-9.11,25.59,25.59,0,0,0-4.29-9.57,24.71,24.71,0,0,0-3.9-4.25,36.26,36.26,0,0,0-4.95-3.49,19,19,0,0,1-4.77-3.9,24.7,24.7,0,0,1-3.06-5.71,41.24,41.24,0,0,0-19.93-20.52,36.43,36.43,0,0,0-7.47-2.59,33.49,33.49,0,0,0-8.09-.7,38.76,38.76,0,0,0-4.14.44c-1.36.25-2.71.58-4.06.85a19.75,19.75,0,0,1-8.21.23c-2.77-.47-5.49-1.39-8.35-2a53.74,53.74,0,0,0-17.76-1.15,46.6,46.6,0,0,0-9,1.9c-5.83,1.94-11.46,5.4-15.2,10.61l-1.1,1.55.49-.21c-9.36-1.9-19,.87-26.32,6s-12.73,13-14.26,21.42l.24-.31a96.82,96.82,0,0,0-10.62,6,32.39,32.39,0,0,0-8.59,8.1,21.17,21.17,0,0,0-3.71,10.71,14.53,14.53,0,0,0,3.21,10.31l0-.51a25.46,25.46,0,0,0-6.66,16,25.47,25.47,0,0,0,5.73,18.17,33.11,33.11,0,0,1,2.19,2.69,6.48,6.48,0,0,1,1.17,3,17.89,17.89,0,0,1,0,3.19,50.39,50.39,0,0,0,.64,11.65,24.59,24.59,0,0,0,3.26,8.8,15.06,15.06,0,0,0,4.91,4.85c1.62,1,3,1.38,3.83,1.92a8.12,8.12,0,0,1,1.14.9,3.5,3.5,0,0,0-1.08-1c-.79-.6-2.21-1-3.76-2a15.07,15.07,0,0,1-4.75-4.85,24.15,24.15,0,0,1-3.11-8.69,50.29,50.29,0,0,1-.54-11.54,20,20,0,0,0,0-3.29,7.11,7.11,0,0,0-1.25-3.24,30.56,30.56,0,0,0-2.21-2.75,24.57,24.57,0,0,1-2.05-2.92,25.52,25.52,0,0,1-3.44-14.81,24.77,24.77,0,0,1,6.51-15.48l.24-.25-.22-.27a13.7,13.7,0,0,1-3-9.76,20.24,20.24,0,0,1,3.6-10.28,31.34,31.34,0,0,1,8.38-7.86,96.31,96.31,0,0,1,10.53-5.9l.2-.1,0-.22c1.49-8.2,6.71-15.79,13.92-20.83s16.55-7.73,25.6-5.89l.29.06.19-.27c.36-.49.71-1,1.07-1.49,3.61-5,9.05-8.38,14.73-10.29a45.33,45.33,0,0,1,8.78-1.86,53.41,53.41,0,0,1,17.46,1.11c2.8.62,5.55,1.54,8.4,2a20.72,20.72,0,0,0,4.31.33,24.5,24.5,0,0,0,4.22-.58c1.37-.28,2.71-.61,4.05-.85a36.41,36.41,0,0,1,4-.44,32.42,32.42,0,0,1,7.89.67,36.14,36.14,0,0,1,7.3,2.5,40.62,40.62,0,0,1,19.61,20.08,25.31,25.31,0,0,0,3.19,5.85,19.79,19.79,0,0,0,4.95,4,36.3,36.3,0,0,1,4.9,3.4,24.65,24.65,0,0,1,3.82,4.12,25,25,0,0,1,4.26,9.34,33.23,33.23,0,0,1,.55,9,44.62,44.62,0,0,0,.15,7.67,14.5,14.5,0,0,0,2,5.79c.95,1.51,1.93,2.65,2.62,3.63a19.6,19.6,0,0,1,1.48,2.31C367.62,175,367.74,175.27,367.76,175.26Z" style="fill: rgb(69, 90, 100); transform-origin: 269.111px 166.781px;" id="eltoza5qhgud" class="animable"/>
    <path d="M251.45,100.7c.05.07.8-.49,2.27-1.26a20.63,20.63,0,0,1,6.65-2.13,19.4,19.4,0,0,1,10.14,1.19,20.07,20.07,0,0,1,9.42,8.08,17.25,17.25,0,0,1,1.62,3.43,3.85,3.85,0,0,1-.14,3.24l-.72,1.07,1.23-.39a12.71,12.71,0,0,1,9.53.88,12.26,12.26,0,0,1,5.37,5.54,13.56,13.56,0,0,1,1.34,5c.07,1.23,0,1.91.06,1.91s.07-.16.13-.48a9,9,0,0,0,.12-1.44,12.86,12.86,0,0,0-6.65-11.25,13.4,13.4,0,0,0-10.17-1.05l.51.69a4.74,4.74,0,0,0,.27-4,18,18,0,0,0-1.71-3.64,20.54,20.54,0,0,0-9.89-8.39,19.62,19.62,0,0,0-10.56-1,19.13,19.13,0,0,0-6.72,2.47,13.24,13.24,0,0,0-1.6,1.11C251.6,100.52,251.43,100.68,251.45,100.7Z" style="fill: rgb(69, 90, 100); transform-origin: 274.959px 111.823px;" id="el788j22aqtiq" class="animable"/>
    <path d="M202.56,137.33a4.72,4.72,0,0,0,1.11,1.07,19.63,19.63,0,0,0,3.54,2.32,14.57,14.57,0,0,0,6.18,1.67,11,11,0,0,0,7.56-2.51l-.68-.09.94,1.24c.33.4.71.78,1.08,1.18a18.54,18.54,0,0,0,7.8,4.57,19.27,19.27,0,0,0,7.35.72,17,17,0,0,0,4.81-1.24,5.74,5.74,0,0,0,1.58-.9c-.07-.19-2.35,1.2-6.44,1.48a19.26,19.26,0,0,1-7-.88,18.29,18.29,0,0,1-7.4-4.41c-.34-.37-.7-.73-1-1.11l-.89-1.16-.32-.42-.37.33a10.39,10.39,0,0,1-6.94,2.39,14.87,14.87,0,0,1-5.93-1.41C204.3,138.67,202.66,137.2,202.56,137.33Z" style="fill: rgb(69, 90, 100); transform-origin: 223.195px 142.455px;" id="el7s9z99aqbkr" class="animable"/>
    <path d="M187.1,166.27s0,.2.09.56a5.44,5.44,0,0,0,.73,1.47,8.25,8.25,0,0,0,5,3.16c2.55.59,5.66,0,8.75-1.2a49.88,49.88,0,0,0,4.8-2,8.43,8.43,0,0,0,4.13-4c.06-.17.13-.34.18-.5l-.72.24a35.15,35.15,0,0,0,9.27,5.22,15.87,15.87,0,0,0,8.65.66,11.49,11.49,0,0,0,5.25-2.57,7.37,7.37,0,0,0,1.08-1.16c.21-.3.31-.46.28-.48s-.53.55-1.59,1.37a11.9,11.9,0,0,1-5.15,2.2,15.55,15.55,0,0,1-8.24-.82,36,36,0,0,1-9-5.17l-.5-.37-.22.61c0,.13-.09.28-.14.42a7.63,7.63,0,0,1-3.71,3.53c-1.54.8-3.17,1.44-4.68,2.05-3,1.2-5.94,1.81-8.31,1.34a8.14,8.14,0,0,1-4.88-2.73A15.05,15.05,0,0,1,187.1,166.27Z" style="fill: rgb(69, 90, 100); transform-origin: 210.848px 167.286px;" id="elwct6m342lfe" class="animable"/>
    <path d="M291.53,264.87c.73-.5,3.78,4.58,10.28,5.59s11.59-2.77,12.06-2.08c.26.27-.62,1.7-2.87,3.13a14.73,14.73,0,0,1-9.89,2,12.82,12.82,0,0,1-8.3-4.89C291.35,266.64,291.16,265,291.53,264.87Z" style="fill: rgb(38, 50, 56); transform-origin: 302.64px 269.255px;" id="elvpfgwbo9ql" class="animable"/>
    <path d="M317.55,342.15c-8.56,36.21-83,34.94-90.86,2.14l-86,31.37,18.73,87.61,231.89-.17,15.25-96.76Z" style="fill: rgb(64, 123, 255); transform-origin: 273.625px 402.71px;" id="elzb1vqam08f" class="animable"/>
    <path d="M98,463.27s-6.12-69.49,46.79-89.1l14.62,89.1Z" style="fill: rgb(64, 123, 255); transform-origin: 128.597px 418.72px;" id="elh26z9fqgd9a" class="animable"/>
    <path d="M391.33,463.1l15.25-96.76s29.1,9.07,37.77,36.65c6.76,21.5,11.1,60.31,11.1,60.31H429Z" style="fill: rgb(64, 123, 255); transform-origin: 423.39px 414.82px;" id="elp3la8qh9sy" class="animable"/>
    <path d="M150.94,412.44a1.89,1.89,0,0,1,.15.51l.36,1.46c.3,1.33.71,3.16,1.22,5.39,1,4.61,2.35,10.89,3.84,17.82.44,2.09.87,4.12,1.27,6v.06c-.32,5.59-.6,10.46-.8,14-.11,1.7-.2,3.08-.27,4.09,0,.44-.07.8-.1,1.09a1.65,1.65,0,0,1-.05.38s0-.13,0-.38l0-1.1c0-1,.08-2.39.14-4.09.16-3.55.38-8.42.64-14v.06c-.41-1.91-.84-3.94-1.28-6-1.45-6.94-2.76-13.22-3.72-17.85-.44-2.24-.8-4.08-1.07-5.42L151,413A2.28,2.28,0,0,1,150.94,412.44Z" style="fill: rgb(38, 50, 56); transform-origin: 154.36px 437.84px;" id="eli58mbe9wsxb" class="animable"/>
    <path d="M396.57,463.27a2.07,2.07,0,0,1-.07-.35c0-.28-.07-.62-.12-1-.1-.95-.23-2.24-.38-3.83-.3-3.33-.71-7.89-1.17-13.12v-.05c.18-1.8.37-3.72.57-5.69.71-6.6,1.34-12.57,1.81-17,.25-2.13.45-3.87.6-5.14.07-.57.14-1,.19-1.4a2.23,2.23,0,0,1,.09-.48,1.53,1.53,0,0,1,0,.49c0,.38-.06.84-.1,1.41-.11,1.28-.27,3-.45,5.15-.44,4.41-1,10.39-1.67,17-.21,2-.41,3.89-.59,5.7v-.05c.4,5.24.75,9.81,1,13.14.11,1.59.19,2.88.26,3.84,0,.41,0,.75,0,1S396.59,463.27,396.57,463.27Z" style="fill: rgb(38, 50, 56); transform-origin: 396.47px 439.24px;" id="elkmjawuu9uet" class="animable"/>
  </g>
  <g id="freepik--character-2--inject-9" class="animable" style="transform-origin: 468.697px 295.827px;">
    <path d="M411.88,198.32a33.83,33.83,0,0,0,3.63,5.77c1.55,1.67,3,1.9,4.14,5s2.45,6.33,2.45,6.33,6.9,4.63,6.61,4.77-5.21,10.6-5.21,10.6l-11.83-9.2-14.81-7.38-6.62-9.86.41-.88-.77-2s.95-2.39,2.91-.77c0,0-.45-2.76,2.57-1.06s8.56,6.31,9,6.36,5.82,1.76,5.82,1.76l2.54-.42a6.74,6.74,0,0,1-2.68-3.19c-.66-2-2.06-3.17-1-4.85A2.41,2.41,0,0,1,411.88,198.32Z" style="fill: rgb(255, 191, 157); transform-origin: 409.299px 214.486px;" id="el12f8s3f15eo" class="animable"/>
    <path d="M413.8,214.28A4.49,4.49,0,0,1,413,214a13.51,13.51,0,0,0-2.4-.54,35.53,35.53,0,0,0-8.31.12h-.08l-.06,0-1.63-1-.8-.48-.07,0,0-.07-1.35-3.4a2.26,2.26,0,0,0-.9-1.19,1.4,1.4,0,0,0-1.29,0l.09-.17c.2,3.54.12,5.87,0,5.86s0-.57-.07-1.59-.15-2.48-.28-4.25v-.12l.1,0a1.75,1.75,0,0,1,1.68,0,2.64,2.64,0,0,1,1.1,1.4c.43,1.07.9,2.2,1.37,3.37l-.09-.1.81.47,1.62,1-.15,0a31.94,31.94,0,0,1,8.42,0,10.4,10.4,0,0,1,2.41.69A3.34,3.34,0,0,1,413.8,214.28Z" style="fill: rgb(255, 154, 108); transform-origin: 404.825px 210.618px;" id="elgf4o8x5izwf" class="animable"/>
    <path d="M402,208.26a39.53,39.53,0,0,1-4.65-3.69,38.57,38.57,0,0,1-4.36-4,39.57,39.57,0,0,1,4.66,3.7A38.39,38.39,0,0,1,402,208.26Z" style="fill: rgb(255, 154, 108); transform-origin: 397.495px 204.415px;" id="eln2i6qopoono" class="animable"/>
    <path d="M395.25,207.21c-.05,0-.28-.26-.61-.75a11.27,11.27,0,0,0-1.42-1.76,4.5,4.5,0,0,0-1.87-1.12c-.55-.16-.91-.14-.92-.21s.36-.2,1-.11a3.91,3.91,0,0,1,2.12,1.11,7.45,7.45,0,0,1,1.38,1.92C395.18,206.83,395.31,207.18,395.25,207.21Z" style="fill: rgb(255, 154, 108); transform-origin: 392.847px 205.22px;" id="elcuxdkzglghd" class="animable"/>
    <path d="M405.37,207.15a12.07,12.07,0,0,0-2.61,1.82,12.67,12.67,0,0,0-1.7,2.68c-.05,0-.05-.39.14-1a5.37,5.37,0,0,1,1.23-2,5.56,5.56,0,0,1,2-1.32C405,207.12,405.35,207.1,405.37,207.15Z" style="fill: rgb(255, 154, 108); transform-origin: 403.201px 209.389px;" id="el861pddl1fwl" class="animable"/>
    <path d="M507.22,179l.52-42.17c.47-10.49-5.25-19.5-15.74-19.68l-1,0a18.76,18.76,0,0,0-18,18c-.36,9.09-.63,19.14-.37,24,.54,10.06,10.67,11.21,10.67,11.21s.06,6.12,0,9.07L481,186.36l8.28-2Z" style="fill: rgb(255, 191, 157); transform-origin: 490.147px 151.755px;" id="el81cp0v0h7sr" class="animable"/>
    <path d="M483.35,170.38A24.3,24.3,0,0,0,496.29,166s-2.84,7.7-12.92,7.21Z" style="fill: rgb(255, 154, 108); transform-origin: 489.82px 169.616px;" id="elp59eduqlxk" class="animable"/>
    <path d="M476.18,143.85a1.43,1.43,0,0,0,1.45,1.39,1.38,1.38,0,0,0,1.43-1.35,1.45,1.45,0,0,0-1.45-1.4A1.38,1.38,0,0,0,476.18,143.85Z" style="fill: rgb(38, 50, 56); transform-origin: 477.62px 143.865px;" id="els49wxip0q3m" class="animable"/>
    <path d="M475.37,139.53c.19.18,1.24-.67,2.79-.73s2.71.66,2.87.47-.11-.42-.62-.76a4,4,0,0,0-2.31-.61,3.78,3.78,0,0,0-2.21.82C475.43,139.1,475.28,139.45,475.37,139.53Z" style="fill: rgb(38, 50, 56); transform-origin: 478.211px 138.725px;" id="el5a64fuc90ck" class="animable"/>
    <path d="M490.17,144.14a1.44,1.44,0,0,0,1.44,1.4,1.37,1.37,0,0,0,1.43-1.36,1.43,1.43,0,0,0-1.44-1.39A1.36,1.36,0,0,0,490.17,144.14Z" style="fill: rgb(38, 50, 56); transform-origin: 491.605px 144.165px;" id="elmhn1rst3ny" class="animable"/>
    <path d="M490.55,139.26c.18.18,1.24-.67,2.79-.73s2.71.67,2.87.47-.12-.42-.63-.76a4,4,0,0,0-2.31-.61,3.85,3.85,0,0,0-2.21.82C490.6,138.83,490.46,139.18,490.55,139.26Z" style="fill: rgb(38, 50, 56); transform-origin: 493.39px 138.455px;" id="ell0caehkgz1" class="animable"/>
    <path d="M485.49,151.37A10.41,10.41,0,0,0,483,151c-.4,0-.77-.09-.85-.35a2,2,0,0,1,.21-1.18c.34-1,.68-2,1.05-3.06,1.44-4.35,2.47-7.92,2.3-8s-1.49,3.42-2.94,7.77c-.35,1.07-.68,2.09-1,3.07a2.27,2.27,0,0,0-.14,1.56,1,1,0,0,0,.67.55,2.81,2.81,0,0,0,.67.06A10,10,0,0,0,485.49,151.37Z" style="fill: rgb(38, 50, 56); transform-origin: 483.64px 144.943px;" id="eln7hr01ckth" class="animable"/>
    <path d="M489.85,134.44c.22.39,1.71-.09,3.53-.2s3.36.1,3.53-.31c.07-.2-.25-.54-.91-.84a5.9,5.9,0,0,0-2.73-.42,5.8,5.8,0,0,0-2.65.82C490,133.87,489.75,134.26,489.85,134.44Z" style="fill: rgb(38, 50, 56); transform-origin: 493.374px 133.62px;" id="elm5z55ru0shk" class="animable"/>
    <path d="M475.11,135c.34.35,1.59,0,3.1-.11s2.8.16,3.09-.21c.12-.18-.09-.53-.66-.85a5.17,5.17,0,0,0-5,.26C475.13,134.45,475,134.81,475.11,135Z" style="fill: rgb(38, 50, 56); transform-origin: 478.203px 134.23px;" id="elseouhgb66zp" class="animable"/>
    <path d="M507.22,144.28c.17-.08,6.83-2.33,6.9,4.56s-6.87,5.53-6.88,5.34S507.22,144.28,507.22,144.28Z" style="fill: rgb(255, 191, 157); transform-origin: 510.67px 149.14px;" id="elxaxw9u5r11" class="animable"/>
    <path d="M509.32,151.55s.12.08.32.17a1.19,1.19,0,0,0,.9,0,3,3,0,0,0,1.35-2.68,4.08,4.08,0,0,0-.35-1.71,1.4,1.4,0,0,0-.91-.91.62.62,0,0,0-.71.33c-.09.2-.05.33-.08.35s-.15-.12-.1-.4a.82.82,0,0,1,.27-.44,1,1,0,0,1,.66-.18,1.7,1.7,0,0,1,1.27,1.06,4.2,4.2,0,0,1,.43,1.91c0,1.39-.73,2.7-1.72,3a1.25,1.25,0,0,1-1.1-.17C509.33,151.71,509.29,151.56,509.32,151.55Z" style="fill: rgb(255, 154, 108); transform-origin: 510.841px 149.093px;" id="elcayvl6v00w" class="animable"/>
    <path d="M490.35,152.33c-.24,0-.25,1.57-1.61,2.68s-3,.94-3.05,1.16.37.31,1.08.33a3.89,3.89,0,0,0,2.55-.88,3.43,3.43,0,0,0,1.25-2.25C490.63,152.71,490.46,152.32,490.35,152.33Z" style="fill: rgb(38, 50, 56); transform-origin: 488.134px 154.415px;" id="el6435tkcf3aa" class="animable"/>
    <path d="M459.15,126.11a1.57,1.57,0,0,1,.75-1,5,5,0,0,1,2.57-.45,14.54,14.54,0,0,0,6.29-1.66,7,7,0,0,1-1.87-1.28,4.31,4.31,0,0,1-1.29-4.28,1,1,0,0,1,.53-.67c.45-.14.84.3,1.16.64a3.72,3.72,0,0,0,3.52,1.45,6.2,6.2,0,0,0,2.61-.81l.09-.1,1-1.07h0c2.56-2.6,4.77-4.41,7.05-5.36a23.46,23.46,0,0,1,12.49-1.12c3.51.88,6.69,3.68,7.22,7.27,1.95-1.68,4.9-1.7,7.31-.77l.06,0c2.68.92,4.23,3.72,5,6.43,0,.15.09.3.13.45a10.54,10.54,0,0,0,3.63,3.46c.26.15.56.33.59.63s-.21.54-.45.71a5.1,5.1,0,0,1-2.15.92,12,12,0,0,0,.91,1.87c.31.5.67,1.11.41,1.64a1.12,1.12,0,0,1-1.17.53,3.33,3.33,0,0,1-1.25-.55l.92,2.13a6.33,6.33,0,0,1-2.9-.16c-.54,2.55-.91,7.26-1.55,9-1.83.05-2.27-.14-3.19.17-1.19.41-.71,2.52-2.27,1.94-.8-.3-2-3.28-2.32-4.08a39.45,39.45,0,0,1-1.89-16.63,12.53,12.53,0,0,0-3.94-2.78l.13.11c-2.83-.95-6-1.87-8.69-.52-2.06,1-3.25,3.21-4.78,5a14.46,14.46,0,0,1-10.59,5.3c-.36,3-.42,8-.53,10.86l-2.49-5.66v0c-.2-.33-.37-.67-.53-1l-.05-.1v0c-.26-.53-.5-1.07-.82-1.6l0,0a1.77,1.77,0,0,1-2.61-2.34,3.85,3.85,0,0,1,.84-.87,2.77,2.77,0,0,1-2.66.72,2.2,2.2,0,0,1-1.58-2.16,1.89,1.89,0,0,1,1.1-1.51,6.38,6.38,0,0,1-3.61-.75C459.62,127.66,458.92,127,459.15,126.11Z" style="fill: rgb(38, 50, 56); transform-origin: 488.549px 128.093px;" id="el6w4wkh1t78g" class="animable"/>
    <path d="M498.15,118.91a7.87,7.87,0,0,1,1,.91,7.27,7.27,0,0,1,1.58,3.33,12.51,12.51,0,0,1,.29,2.56c0,.93-.05,1.92-.11,3a25.88,25.88,0,0,0,0,3.31,11.77,11.77,0,0,0,.25,1.74,3.59,3.59,0,0,0,.73,1.68,1.51,1.51,0,0,0,1.43.46,2.21,2.21,0,0,0,1.27-.73,5.24,5.24,0,0,0,.94-2.58l-.21,0a8.78,8.78,0,0,0,1.25,2.1,3,3,0,0,0,2,1,1.9,1.9,0,0,0,1-.19,1.63,1.63,0,0,0,.7-.7,1.72,1.72,0,0,0,.2-.9,1.26,1.26,0,0,0-.33-.78l-.1.1a6.56,6.56,0,0,0,2.18,1.6,6.38,6.38,0,0,0,.67.25l.25.06-.23-.1c-.15-.06-.38-.15-.66-.28a6.91,6.91,0,0,1-2.11-1.63l-.1.1a1.29,1.29,0,0,1,.08,1.5,1.51,1.51,0,0,1-.63.62,1.75,1.75,0,0,1-.94.16,2.8,2.8,0,0,1-1.83-1,8.6,8.6,0,0,1-1.21-2.05l-.15-.33-.06.35a5,5,0,0,1-.9,2.46,2,2,0,0,1-1.13.66,1.3,1.3,0,0,1-1.22-.39,3.46,3.46,0,0,1-.67-1.57,11.2,11.2,0,0,1-.25-1.71,27.45,27.45,0,0,1,0-3.28c0-1,.11-2,.08-3a12.74,12.74,0,0,0-.32-2.59,7,7,0,0,0-1.68-3.35A3.92,3.92,0,0,0,498.15,118.91Z" style="fill: rgb(69, 90, 100); transform-origin: 505.645px 127.421px;" id="elpdc26m40rj" class="animable"/>
    <path d="M467.08,129.07s0,0,.08.07l.25.18a4.19,4.19,0,0,0,.43.27,6,6,0,0,0,.62.31,8.89,8.89,0,0,0,4.32.73,11.42,11.42,0,0,0,6.06-2.32,19.75,19.75,0,0,0,5.16-6.08c.72-1.23,1.3-2.49,1.95-3.65a13.46,13.46,0,0,1,2.22-3.1,6.92,6.92,0,0,1,2.88-1.79,5.15,5.15,0,0,1,1.53-.2,5.34,5.34,0,0,1,1.41.26,5.89,5.89,0,0,1,3.27,2.7,7.24,7.24,0,0,1,.54,1.51.87.87,0,0,0,0-.11c0-.08,0-.18-.05-.31a5.8,5.8,0,0,0-.4-1.13,5.73,5.73,0,0,0-1.15-1.52,5.8,5.8,0,0,0-2.15-1.3,5.57,5.57,0,0,0-1.45-.28,5.17,5.17,0,0,0-1.59.19,7.1,7.1,0,0,0-3,1.83,13.55,13.55,0,0,0-2.26,3.14c-.66,1.17-1.24,2.42-1.95,3.64a19.89,19.89,0,0,1-5.09,6,11.31,11.31,0,0,1-5.94,2.32,9,9,0,0,1-4.27-.64A13.19,13.19,0,0,1,467.08,129.07Z" style="fill: rgb(69, 90, 100); transform-origin: 482.441px 121.983px;" id="elbswuvhfu8uc" class="animable"/>
    <path d="M466.11,124.65a1.78,1.78,0,0,0,.36.25,8.39,8.39,0,0,0,1.08.53,11.42,11.42,0,0,0,1.7.54,11.94,11.94,0,0,0,2.17.26,12.36,12.36,0,0,0,2.18-.17,10.74,10.74,0,0,0,1.72-.47,7.75,7.75,0,0,0,1.1-.49,1.48,1.48,0,0,0,.38-.23s-.58.25-1.53.56a11.19,11.19,0,0,1-1.7.41,12.12,12.12,0,0,1-2.14.15,12.48,12.48,0,0,1-2.13-.24,10.55,10.55,0,0,1-1.69-.48C466.67,124.93,466.13,124.61,466.11,124.65Z" style="fill: rgb(69, 90, 100); transform-origin: 471.455px 125.439px;" id="el7vnfzudxy6a" class="animable"/>
    <path d="M463.17,434.63l.77,20.05s-20.49,7.5-20.72,11.22l39.64-.07.1-31.28Z" style="fill: rgb(38, 50, 56); transform-origin: 463.09px 450.225px;" id="elrx4cll9l0y" class="animable"/>
    <path d="M476.19,453a1.58,1.58,0,0,1,1.12,1.81,1.55,1.55,0,0,1-1.82,1.11,1.66,1.66,0,0,1-1.17-1.92,1.62,1.62,0,0,1,2-1" style="fill: rgb(224, 224, 224); transform-origin: 475.812px 454.441px;" id="el3cp5famfzhs" class="animable"/>
    <path d="M482.86,465.83l-.12-3.16-37.95,1.25s-1.77.76-1.57,2Z" style="fill: rgb(69, 90, 100); transform-origin: 463.032px 464.295px;" id="elymtzk7zsqs" class="animable"/>
    <path d="M463.3,454.48c0,.19,1,.28,1.92.88s1.47,1.41,1.64,1.34-.11-1.18-1.28-1.89S463.25,454.31,463.3,454.48Z" style="fill: rgb(255, 255, 255); transform-origin: 465.102px 455.509px;" id="el2moweiwloql" class="animable"/>
    <path d="M459.14,456.18c0,.18.8.5,1.46,1.31s.85,1.65,1,1.64.31-1.08-.53-2.07S459.15,456,459.14,456.18Z" style="fill: rgb(255, 255, 255); transform-origin: 460.43px 457.616px;" id="elr6ezlwk44ih" class="animable"/>
    <path d="M456.79,461.07c.18,0,.44-.91-.05-1.95s-1.41-1.46-1.49-1.3.48.72.87,1.58S456.6,461.05,456.79,461.07Z" style="fill: rgb(255, 255, 255); transform-origin: 456.132px 459.429px;" id="elpjb6v25tkyj" class="animable"/>
    <path d="M463.64,449.89c.08.18,1-.09,2.06,0s1.95.41,2.05.25-.72-.84-2-.91S463.54,449.75,463.64,449.89Z" style="fill: rgb(255, 255, 255); transform-origin: 465.695px 449.704px;" id="el13vckj3tu36b" class="animable"/>
    <path d="M509.31,435.59l1.09,23.88-4.69,19.13a2.44,2.44,0,0,0,2,3h0a2.46,2.46,0,0,0,2.17-.68c3.64-3.57,16.59-17,16.64-18.25.09-2,.69-25.55.69-25.55Z" style="fill: rgb(38, 50, 56); transform-origin: 516.424px 458.614px;" id="eliy3wwd0c91q" class="animable"/>
    <path d="M507.72,481.58l18.91-20.83,0,1a3.84,3.84,0,0,1-.84,2.41C524.3,466,520,470.91,510,480.9a2.53,2.53,0,0,1-2.25.68Z" style="fill: rgb(69, 90, 100); transform-origin: 517.175px 471.188px;" id="els55et35rskd" class="animable"/>
    <g id="elqngvo7zsnpo">
      <g style="opacity: 0.6; transform-origin: 522.3px 454.284px;" class="animable">
        <path d="M521.46,453.15a1.41,1.41,0,0,0,1.59,2.32,1.54,1.54,0,0,0,.38-2.06,1.52,1.52,0,0,0-2.08-.17" style="fill: rgb(255, 255, 255); transform-origin: 522.3px 454.284px;" id="elx3uv3g3k5b" class="animable"/>
      </g>
    </g>
    <path d="M513.05,471a7.55,7.55,0,0,0-2.18-1.81,8,8,0,0,0-2.81-.47c0-.05.28-.25.85-.34a4,4,0,0,1,2.19.33,3.86,3.86,0,0,1,1.67,1.44C513.06,470.65,513.11,471,513.05,471Z" style="fill: rgb(255, 255, 255); transform-origin: 510.566px 469.673px;" id="elymqlpw7v76f" class="animable"/>
    <path d="M511.39,474.26c-.12.11-.92-.65-2.18-1a19.83,19.83,0,0,0-2.39-.25,2.84,2.84,0,0,1,2.53-.26C510.79,473.15,511.51,474.19,511.39,474.26Z" style="fill: rgb(255, 255, 255); transform-origin: 509.111px 473.418px;" id="elf8h2ept77pr" class="animable"/>
    <path d="M516.18,466.85a24.8,24.8,0,0,0-3.25-1.73,25.3,25.3,0,0,0-3.63-.75,5.59,5.59,0,0,1,3.81.25A5.51,5.51,0,0,1,516.18,466.85Z" style="fill: rgb(255, 255, 255); transform-origin: 512.74px 465.499px;" id="elg4fyfk2rr0h" class="animable"/>
    <path d="M516.47,459.57c-.06.14-1.42-.38-3.17-.4s-3.13.41-3.18.27a6.26,6.26,0,0,1,6.35.13Z" style="fill: rgb(255, 255, 255); transform-origin: 513.295px 459.116px;" id="elsj05ytybk9" class="animable"/>
    <path d="M516.33,452.55a12.11,12.11,0,0,0-3.28-.5,12.35,12.35,0,0,0-3.21.86c0-.05.22-.35.77-.68a5.47,5.47,0,0,1,4.88-.27C516.08,452.22,516.37,452.5,516.33,452.55Z" style="fill: rgb(255, 255, 255); transform-origin: 513.087px 452.211px;" id="elepjwfbiayyn" class="animable"/>
    <path d="M513.06,450.71a2.08,2.08,0,0,1,0-.9,6.14,6.14,0,0,1,.68-2.39,2.77,2.77,0,0,1,1.18-1.35,1,1,0,0,1,1.14.19,1.65,1.65,0,0,1,.41,1.07,3.49,3.49,0,0,1-3,3.27,4.11,4.11,0,0,1-4.06-2,1.37,1.37,0,0,1-.1-1.16,1,1,0,0,1,1-.53,3.51,3.51,0,0,1,1.62.78,7,7,0,0,1,1.7,1.82,2.37,2.37,0,0,1,.4.82,11.57,11.57,0,0,0-2.32-2.34,3.33,3.33,0,0,0-1.43-.65.54.54,0,0,0-.56.29.94.94,0,0,0,.11.76,3.65,3.65,0,0,0,3.54,1.7,3,3,0,0,0,2.6-2.73,1.14,1.14,0,0,0-.25-.76.55.55,0,0,0-.62-.12,2.57,2.57,0,0,0-1,1.13A9.11,9.11,0,0,0,513.06,450.71Z" style="fill: rgb(255, 255, 255); transform-origin: 512.848px 448.34px;" id="eltujcrvlfdla" class="animable"/>
    <path d="M457,275.46s-4.77,14.1-4.3,27.55c.18,5.2,8.32,149.19,8.32,149.19l24.08,1L484.1,318l2,.5s10.65,58.08,11.32,67.44c.61,8.41,9.06,69.7,9.06,69.7l21.93-.6-3.48-79L520,298.54l-2.11-22.6Z" style="fill: rgb(38, 50, 56); transform-origin: 490.539px 365.55px;" id="elc9qnhl28e9" class="animable"/>
    <path d="M487,304.42a4.91,4.91,0,0,1-1,.52,11.82,11.82,0,0,1-3,.9,6.41,6.41,0,0,1-2.21-.08,4.63,4.63,0,0,1-2.28-1.19,5.41,5.41,0,0,1-1.3-2.47c-.24-.93-.36-1.89-.52-2.87-.6-3.93-1-7.5-1.16-10.1-.09-1.29-.15-2.34-.17-3.07a4.92,4.92,0,0,1,0-1.13,4.34,4.34,0,0,1,.18,1.12c.1.82.21,1.84.34,3.05.28,2.58.71,6.14,1.3,10,.31,1.94.49,3.9,1.66,5.1a5.06,5.06,0,0,0,4.11,1.23,13.23,13.23,0,0,0,3-.73A6.09,6.09,0,0,1,487,304.42Z" style="fill: rgb(69, 90, 100); transform-origin: 481.164px 295.415px;" id="elke1hzgr6e1" class="animable"/>
    <path d="M480.53,285.83s.16-.12.5-.13a2.19,2.19,0,0,1,1.33.48,2.37,2.37,0,0,1,.94,1.87,2.22,2.22,0,0,1-1.63,2,2.16,2.16,0,0,1-2.87-2.69,2.13,2.13,0,0,1,.78-1.16c.28-.19.47-.21.48-.19a2.64,2.64,0,0,0-.91,1.43,2,2,0,0,0,.38,1.68,1.85,1.85,0,0,0,2,.45,1.78,1.78,0,0,0,1.32-1.51,2.06,2.06,0,0,0-.7-1.58A2.75,2.75,0,0,0,480.53,285.83Z" style="fill: rgb(69, 90, 100); transform-origin: 480.993px 287.957px;" id="elo7liq1d4exd" class="animable"/>
    <path d="M518.26,297.14a2.4,2.4,0,0,1-.82.1,17.21,17.21,0,0,1-2.26-.07,22.52,22.52,0,0,1-7.18-1.95,22.08,22.08,0,0,1-6.1-4.21,15.13,15.13,0,0,1-1.49-1.66c-.32-.43-.48-.67-.45-.69s.81.85,2.19,2.1a24.78,24.78,0,0,0,6.07,4,25.05,25.05,0,0,0,7,2.06C517.08,297.07,518.26,297.05,518.26,297.14Z" style="fill: rgb(69, 90, 100); transform-origin: 509.108px 292.955px;" id="ellue987sx3i" class="animable"/>
    <path d="M478.16,180.22,467,184.48a9.45,9.45,0,0,0-3.67,2.57c-2.43,2.79-6.73,8.82-9.31,18.69-3.5,13.38-5.64,21-5.64,21l-23.93-14.16L412.67,226s33.53,36.38,42.76,36.27l-9.86,91.69,12.7-.29L481.82,180l.8-5.67C482.31,174.45,479,179.08,478.16,180.22Z" style="fill: rgb(224, 224, 224); transform-origin: 447.645px 264.145px;" id="elwlcrosvmz7h" class="animable"/>
    <polygon points="482.62 174.34 486.41 176.72 508.19 167.35 509.18 172.17 489.47 213.05 489.22 282.18 467.9 282.6 480.15 183.97 482.62 174.34" style="fill: rgb(64, 123, 255); transform-origin: 488.54px 224.975px;" id="elp2a694m3b7d" class="animable"/>
    <path d="M503,176.4a4.37,4.37,0,0,1-.76.47l-2.13,1.19c-1.8,1-4.27,2.39-7,4l-3.42,2-.15.08-.08-.14c-1.06-1.91-1.69-3.66-2.23-4.85-.26-.59-.48-1.06-.64-1.38a2.4,2.4,0,0,1-.22-.51,2.19,2.19,0,0,1,.32.46c.18.3.43.76.72,1.35.6,1.17,1.27,2.9,2.33,4.77l-.22-.06c1.05-.63,2.2-1.31,3.41-2,2.72-1.57,5.22-2.94,7-3.88l2.18-1.09A5.54,5.54,0,0,1,503,176.4Z" style="fill: rgb(38, 50, 56); transform-origin: 494.685px 180.27px;" id="el7d7yra04peb" class="animable"/>
    <path d="M461.7,196.8s0,.06,0,.18l-.05.53c-.05.49-.13,1.17-.23,2-.2,1.8-.49,4.35-.85,7.5-.72,6.33-1.64,15.08-2.56,24.76s-1.66,18.46-2.21,24.81c-.28,3.15-.5,5.71-.66,7.52-.08.86-.15,1.55-.19,2,0,.22-.05.39-.06.53l0,.18s0-.06,0-.18,0-.32,0-.54c0-.49.07-1.18.13-2,.13-1.81.31-4.37.54-7.53.49-6.36,1.2-15.13,2.12-24.82s1.87-18.43,2.65-24.76c.39-3.16.72-5.72,1-7.49.12-.86.22-1.54.29-2,0-.21.06-.39.09-.53S461.69,196.8,461.7,196.8Z" style="fill: rgb(38, 50, 56); transform-origin: 458.305px 231.805px;" id="el86swo347irw" class="animable"/>
    <path d="M515,246.54a16.78,16.78,0,0,0-7.81-3.85,3.66,3.66,0,0,1,1.31.09,11.75,11.75,0,0,1,5.63,2.78A3.79,3.79,0,0,1,515,246.54Z" style="fill: rgb(38, 50, 56); transform-origin: 511.095px 244.604px;" id="elxcmmdbvhaea" class="animable"/>
    <path d="M533.6,185.06,516,177.21l-6-4.52-1.34-4.49a46.45,46.45,0,0,0-7.38,11.62c-5,10.76-10.67,26.45-11.82,33.23l-4.33,140.87H533.6l-6.38-82.16-5.41-30.18Z" style="fill: rgb(224, 224, 224); transform-origin: 509.365px 261.06px;" id="elwilh4qv8dro" class="animable"/>
    <path d="M489.16,219.37a2.49,2.49,0,0,1,.23-.48c.18-.34.42-.79.73-1.35.66-1.2,1.6-2.88,2.74-4.95,2.36-4.18,5.59-9.92,9.15-16.25l.49-.85,0,.13-1.12-3.81,0-.12.1-.07,2.74-1.93-.06.08,4.19-12.29,1.24-3.54.34-.94a1.08,1.08,0,0,1,.14-.31,1.76,1.76,0,0,1-.08.33c-.08.25-.18.56-.3,1-.27.86-.66,2.07-1.14,3.56-1,3.08-2.43,7.36-4.08,12.33v0l0,0-2.73,1.94.07-.19c.36,1.24.74,2.51,1.13,3.81l0,.07,0,.07-.48.85c-3.61,6.31-6.87,12-9.25,16.2-1.18,2-2.15,3.71-2.83,4.89l-.79,1.33A2.43,2.43,0,0,1,489.16,219.37Z" style="fill: rgb(38, 50, 56); transform-origin: 499.615px 196.03px;" id="elarxxisbbxyj" class="animable"/>
    <path d="M477.12,215a2.58,2.58,0,0,1-.1-.38c-.06-.27-.13-.63-.22-1.08-.19-1-.45-2.32-.77-4-.62-3.39-1.46-8-2.39-13.14-.09-.53-.19-1.06-.28-1.58v0l0-.05,2.32-3.52.09.2-2.31-.64-.16,0,.06-.13c1.38-3.06,2.56-5.65,3.4-7.52l1-2.14.27-.56a.93.93,0,0,1,.11-.19s0,.08-.06.21l-.23.57c-.22.54-.53,1.26-.91,2.16-.81,1.88-1.95,4.49-3.28,7.56l-.1-.17,2.32.62.19.06-.1.14-2.31,3.53,0-.09c.09.52.19,1.05.28,1.58.9,5.12,1.7,9.76,2.3,13.15l.65,4c.07.44.12.81.16,1.08A1.28,1.28,0,0,1,477.12,215Z" style="fill: rgb(38, 50, 56); transform-origin: 475.72px 197.635px;" id="elz2e5qo45kjg" class="animable"/>
    <path d="M481.74,180.64a14.17,14.17,0,0,1,1.19,2.33h-.28c.29-.57.67-1.19,1.08-1.84.71-1.1,1.39-2.07,1.86-2.78a9.5,9.5,0,0,1,.81-1.13,4.37,4.37,0,0,1-.6,1.26c-.42.75-1.07,1.75-1.77,2.84-.42.64-.8,1.25-1.11,1.79l-.16.28-.12-.29A12.78,12.78,0,0,1,481.74,180.64Z" style="fill: rgb(38, 50, 56); transform-origin: 484.07px 180.305px;" id="el95r1lj2i68" class="animable"/>
    <path d="M475.85,290a1,1,0,0,1,0-.3c0-.2,0-.49.06-.85.06-.77.16-1.87.27-3.28.26-2.86.63-7,1.08-12.05.94-10.19,2.24-24.24,3.68-39.75s2.81-29.57,3.78-39.75c.5-5.08.91-9.19,1.19-12,.15-1.4.26-2.5.34-3.27,0-.36.07-.64.1-.85s0-.29,0-.29a1.59,1.59,0,0,1,0,.29c0,.21,0,.5-.06.86-.06.77-.16,1.87-.28,3.28-.25,2.86-.62,7-1.07,12.05-1,10.19-2.25,24.24-3.68,39.76l-3.79,39.74c-.49,5.07-.9,9.18-1.18,12.05-.15,1.4-.26,2.5-.34,3.27,0,.36-.08.64-.1.85S475.85,290,475.85,290Z" style="fill: rgb(38, 50, 56); transform-origin: 481.101px 233.805px;" id="el2jvz8yhknyk" class="animable"/>
    <g id="elpnd3hi8b5yq">
      <g style="opacity: 0.2; transform-origin: 499.835px 195.885px;" class="animable">
        <polygon points="509.53 174.12 504.68 191.61 502.65 192.38 504.04 196.76 490.14 217.65 502.65 195.57 501.52 191.76 504.26 189.82 509.53 174.12" id="elsfzivjyybo8" class="animable" style="transform-origin: 499.835px 195.885px;"/>
      </g>
    </g>
    <g id="elyy59kl09r5">
      <g style="opacity: 0.2; transform-origin: 493.8px 182.57px;" class="animable">
        <polygon points="486.97 178.27 488.25 187.37 500.63 177.77 489.63 183.87 486.97 178.27" id="el528kso1anfb" class="animable" style="transform-origin: 493.8px 182.57px;"/>
      </g>
    </g>
    <rect x="491.27" y="219.4" width="17.27" height="4.28" style="fill: rgb(224, 224, 224); transform-origin: 499.905px 221.54px;" id="elj4xub3pb0c" class="animable"/>
    <path d="M508.54,223.69a2.08,2.08,0,0,1,0-.31c0-.22,0-.5,0-.85,0-.76,0-1.81-.06-3.13l.1.1c-3.88,0-10.17.06-17.27.06l.16-.16h0v4.27l-.16-.16,12.27.07,3.65.05,1,0a1.55,1.55,0,0,1,.36,0l-.32,0-1,0-3.61,0-12.38.07h-.15v-.15c0-.69,0-1.4,0-2.11v-2.16h0c.32-.31.09-.08.16-.16,7.1,0,13.39,0,17.27.07h.09v.09c0,1.34,0,2.42-.05,3.19,0,.34,0,.61,0,.83S508.54,223.69,508.54,223.69Z" style="fill: rgb(38, 50, 56); transform-origin: 499.89px 221.406px;" id="el0ifcnz1jn9j7" class="animable"/>
    <path d="M448.52,202.54l7.63,28.83a3.58,3.58,0,0,0,3.54,2.67l39.52-.78a3.58,3.58,0,0,0,3.44-4.32l-5.82-27.62a3.6,3.6,0,0,0-3.51-2.84H451.64A3.23,3.23,0,0,0,448.52,202.54Z" style="fill: rgb(38, 50, 56); transform-origin: 475.569px 216.26px;" id="elm6bcc4rscl8" class="animable"/>
    <path d="M511.92,222.13l-4-3.35s-1.24-4.14-2-4.92a8.73,8.73,0,0,0-2.89-1.37l-4.72-4.33.86,3.87-6.84-.05a1.94,1.94,0,0,0-1.87,1.19.91.91,0,0,0-.06.38,2.52,2.52,0,0,0,1.37,1.79l1,.46s-1.44.42-1.62,1.68a2.15,2.15,0,0,0,1.43,2.31,1.9,1.9,0,0,0-.72,2.77s-1.56,1.86-.66,3.12,6.1,3.36,6.1,3.36l2.88,1.31a4.93,4.93,0,0,0,2.16.12l2.15,1.37h0S509.18,229.68,511.92,222.13Z" style="fill: rgb(255, 191, 157); transform-origin: 501.159px 220px;" id="el0hkdsssug3zq" class="animable"/>
    <path d="M502.43,217.57a5.53,5.53,0,0,1-1.56,0,28.47,28.47,0,0,1-3.71-.5,27.75,27.75,0,0,1-3.62-1,5.26,5.26,0,0,1-1.43-.61c0-.12,2.29.62,5.13,1.19S502.44,217.45,502.43,217.57Z" style="fill: rgb(255, 154, 108); transform-origin: 497.27px 216.536px;" id="eltiyo0wicmdt" class="animable"/>
    <path d="M504.31,223a46.38,46.38,0,0,1-5.93-1.39,45.42,45.42,0,0,1-5.83-1.79,44.42,44.42,0,0,1,5.93,1.39A45.42,45.42,0,0,1,504.31,223Z" style="fill: rgb(255, 154, 108); transform-origin: 498.43px 221.41px;" id="elgpxvlp6yqck" class="animable"/>
    <path d="M503.76,227a7.05,7.05,0,0,1-1.9-.25,29.84,29.84,0,0,1-4.44-1.27,30.48,30.48,0,0,1-4.19-1.93,7,7,0,0,1-1.6-1.05,12,12,0,0,1,1.73.8c1.06.51,2.53,1.17,4.21,1.8s3.22,1.07,4.36,1.37A11.07,11.07,0,0,1,503.76,227Z" style="fill: rgb(255, 154, 108); transform-origin: 497.695px 224.75px;" id="el4ann0ea7m5" class="animable"/>
    <path d="M505,221.78c-.11,0,.11-.8-.06-1.73s-.6-1.58-.51-1.65.75.53.92,1.58A2,2,0,0,1,505,221.78Z" style="fill: rgb(255, 154, 108); transform-origin: 504.924px 220.087px;" id="eliconxbre5s" class="animable"/>
    <path d="M505.11,216.82c-.08-.09.28-.51.33-1.15s-.18-1.12-.09-1.19.18.05.31.27a1.62,1.62,0,0,1,.19,1,1.6,1.6,0,0,1-.38.9C505.3,216.8,505.15,216.85,505.11,216.82Z" style="fill: rgb(255, 154, 108); transform-origin: 505.481px 215.644px;" id="elwkkla0o020h" class="animable"/>
    <path d="M504.65,226.76c-.09-.08.18-.5.34-1.07s.18-1.08.3-1.09.3.53.1,1.2S504.72,226.84,504.65,226.76Z" style="fill: rgb(255, 154, 108); transform-origin: 505.056px 225.685px;" id="elx28t4iji2ca" class="animable"/>
    <path d="M494.07,212a180,180,0,0,0,8,.57,16.87,16.87,0,0,0-8-.57Z" style="fill: rgb(255, 154, 108); transform-origin: 498.07px 212.165px;" id="elhjz4v517hyq" class="animable"/>
    <path d="M547,234.47c-.72-4.63-5.92-32.45-7.5-40.86a13.48,13.48,0,0,0-3.52-7.05,15.58,15.58,0,0,0-9-4.34,30.79,30.79,0,0,0-6.15,25.69l.85,4,2.38,15.14-10.81-6.31-9.5,12a74.4,74.4,0,0,0,10,11.41c6,5.24,14,14.64,23.94,13.58C546.79,256.73,548.58,244.29,547,234.47Z" style="fill: rgb(224, 224, 224); transform-origin: 525.632px 220.016px;" id="elnqw39nrpz" class="animable"/>
    <path d="M524.85,253.73a3.27,3.27,0,0,1-.5-.29l-1.4-.91a58.84,58.84,0,0,1-4.87-3.91,124.51,124.51,0,0,1-14.54-15.73l-.13-.17.14-.17,6.53-8.24,3-3.72.15-.19.21.12,10.8,6.33-.38.26c-1-6.75-1.78-12.45-2.36-16.54-.27-2-.48-3.55-.63-4.7l-.15-1.25a1.75,1.75,0,0,1,0-.43,2.12,2.12,0,0,1,.11.42c.05.33.13.73.22,1.24.19,1.14.45,2.71.77,4.67.63,4.08,1.51,9.78,2.56,16.51l.08.53-.46-.27L513.12,221l.36-.06-3,3.72L504,232.89v-.33a133.78,133.78,0,0,0,14.33,15.8c1.94,1.81,3.61,3.12,4.75,4l1.34,1C524.71,253.59,524.86,253.71,524.85,253.73Z" style="fill: rgb(38, 50, 56); transform-origin: 514.13px 228.96px;" id="el5artnaeghvt" class="animable"/>
  </g>
  <defs/>
</svg>